<?xml version="1.0" encoding="UTF-8" standalone="no"?>
<svg id="svg4136" xmlns:rdf="http://www.w3.org/1999/02/22-rdf-syntax-ns#" xmlns="http://www.w3.org/2000/svg" height="510.94" viewBox="0 0 458.4375 510.9375" width="458.44" version="1.1" xmlns:cc="http://creativecommons.org/ns#" xmlns:dc="http://purl.org/dc/elements/1.1/">
<path id="path4146" d="m222.66 507.8c-9.9744-4.0666-19.029-10.049-28.008-18.504-14.605-13.754-22.757-17.682-43.711-21.064-5.4141-0.87367-12.956-2.5913-16.76-3.8169-10.989-3.5404-12.066-3.2908-11.624 2.6935 0.44831 6.0671-1.9552 10.47-6.8268 12.505-7.5546 3.1565-17.73-3.3744-11.9-7.6377 0.90153-0.65921 1.3032-1.5345 0.89253-1.9452-0.79099-0.79098-1.2437-0.53413-6.7357 3.8214-19.438 15.416-47.332-19.174-32.835-40.717l3.1621-4.6989h-5.0714c-25.196 0-41.05-26.238-34.846-57.669 3.7698-19.099 9.7594-25.254 25.906-26.62l7.115-0.59-3.281-1.76c-4.1139-2.2011-11.014-7.6747-13.964-11.077-2.8433-3.2793-4.4106-3.2827-5.2225-0.0115-0.35193 1.418-1.4623 3.4597-2.4676 4.5372-1.1336 1.2151-2.3061 4.7102-3.0875 9.2039-2.4706 14.207-5.7306 12.802-15.652-6.7443-4.001-7.88-8.1374-15.79-9.1927-17.58-16.178-27.42-8.1805-64.55 13.929-64.66l7.9354-0.0408 0.62083-3.0355c0.80252-3.9238 5.1631-10.508 6.9592-10.508 3.398 0 1.1391-2.6377-2.7596-3.2223-4.6708-0.70042-9.7122-5.3709-12.185-11.288-0.94264-2.2561-1.9889-3.3021-3.3026-3.3021-3.0421 0-2.2404-2.3138 1.4038-4.0516 4.5092-2.1503 7.5422-1.2025 10.341 3.2313 2.3797 3.7696 3.9116 4.4283 5.8322 2.5077 2.0648-2.0648 1.1683-4.2586-4.7698-11.672-20.957-26.164-12.88-76.747 13.245-82.952 4.6085-1.0946 11.434-0.82506 14.808 0.58474 6.4298 2.6865 11.416-4.0081 9.2318-12.394-4.8942-18.79 6.0037-52.046 18.046-55.069 1.3838-0.34731 4.1171-2.078 6.0741-3.846 3.663-3.297 7.303-4.23 7.303-1.859 0 0.73869-0.78811 1.5932-1.7514 1.8989-0.96324 0.30572-2.5338 1.4205-3.4902 2.4772-1.8573 2.0522 1.2134 1.9252 5.4143-0.22392 2.1849-1.1178 5.4523-1.013 5.4523 0.17494 0 0.54052-1.1602 1.4897-2.5783 2.1094-6.893 3.01-19.925 15.03-19.925 18.375 0 0.94429-0.84375 2.7895-1.875 4.1006-1.0312 1.311-1.875 3.3317-1.875 4.4905 0 3.1053 3.418-0.13348 5.6873-5.389 0.93186-2.1582 2.8811-4.6616 4.3316-5.5631 1.4505-0.90154 5.0298-3.6709 7.9539-6.1542 5.792-4.918 6.402-5.215 6.402-3.109 0 1.6941 2.743 1.8964 3.1783 0.23438 0.16882-0.64453 0.75377-2.6484 1.2999-4.4531 2.609-8.6216 2.5371-9.3567-0.89243-9.1207-4.7902 0.32959-4.5708-1.4892 0.3778-3.1317 3.2556-1.0806 5.1886-2.5153 7.2812-5.4041 7.8202-10.795 26.53-20.412 39.077-20.086 8.5226 0.22152 8.7601 0.16856 11.999-2.6752 4.5548-3.9992 4.4405-6.457-0.30038-6.457-6.8079 0-8.5912-5.1426-4.0638-11.719 7.5414-10.954 26.642-5.0332 28.878 8.9516l0.58329 3.6477 6.4992-6.9593c16.237-17.387 43.649-18.394 41.748-1.5341-0.89917 7.9773-10.228 12.457-14.465 6.946-2.7746-3.6095-6.1646 4.1536-5.2364 11.991 0.36906 3.116 0.0154 6.2868-1.0949 9.8167-2.7826 8.8467 2.0917 6.6764 6.1036-2.7177 7.7274-18.094 29.355-29.58 45.343-24.079 13.519 4.6511 21.103 4.5588 24.061-0.29289 2.3773-3.8987 2.3055-4.2886-1.0022-5.4416-6.2-2.1592-2.41-9.2355 4.94-9.2355 13.223 0 19.186 17.598 8.5088 25.109-6.8546 4.8211-6.8042 4.3285-0.6955 6.7978 8.2249 3.3247 18.753 9.8174 22.775 14.045 1.9546 2.0547 4.2196 3.7357 5.0333 3.7357 0.81378 0 3.5061 1.5469 5.983 3.4375 5.1536 3.9338 8.3547 4.3215 12.001 1.4535 16.593-13.052 52.919 1.1721 58.114 22.756 0.83007 3.4489 1.9312 4.1954 6.2152 4.2138 33.722 0.1447 45.96 43.709 16.189 57.631-12.355 5.7778-11.543 12.376 1.3852 11.249 15.329-1.3358 23.612 5.2441 23.612 18.758 0 7.5206-11.194 15.063-16.666 11.229-2.6562-1.8604-2.7887-5.1031-0.2086-5.1031 1.0312 0 1.875 0.42187 1.875 0.9375 0 1.9894 4.776 0.80251 7.9361-1.9721 10.29-9.0351 2.1172-20.539-14.792-20.818-16.281-0.26948-21.355-13.536-7.3901-19.321 14.787-6.125 18.86-29.481 7.3452-42.122-8.6295-9.4736-27.067-8.9369-27.341 0.79592-0.10044 3.5699-3.804 12.506-5.3508 12.91-1.1076 0.28963-1.6583 1.3411-1.6583 3.1662 0 2.4685-2.1244 4.6118-3.3532 3.383-1.8574-1.8574-0.64808-13.669 1.869-18.254 6.5371-11.908-2.4793-32.01-16.31-36.362-1.2791-0.40248-3.4541-1.5661-4.8333-2.5858-4.6021-3.4025-23.217-0.17736-27.725 4.8034-8.0897 8.9389-10.617 12.265-11.139 14.658-0.33698 1.5469-1.4545 4.4749-2.4834 6.5066-1.5418 3.0447-1.7958 4.9882-1.4446 11.055 0.23435 4.0483 0.14595 7.5337-0.19645 7.7453-1.8722 1.1571 2.8656 22.699 5.3208 24.193 1.6669 1.0141 1.5609 4.8417-0.17392 6.2815-0.77344 0.6419-1.4197 0.79902-1.4361 0.34916-0.0164-0.44985-0.64014-0.0114-1.3861 0.9743-0.74594 0.98572-1.1326 2.6831-0.85935 3.772 0.2733 1.0889 0.10088 3.0246-0.38316 4.3016-1.412 3.7249-2.459-3.4774-1.1768-8.0952 1.7285-6.2254 1.0512-7.6361-1.1823-2.4626-1.1713 2.7131-2.6309 5.4342-3.2436 6.0469-0.61266 0.61266-1.1139 1.5834-1.1139 2.1573 0 6.5241-21.011 14.792-31.052 12.22-3.9855-1.021-6.1445-1.1911-6.7999-0.53574-1.5227 1.5227-3.2201 1.122-3.8659-0.91253-0.90727-2.8585-4.3801-3.2154-9.3332-0.95904-5.1068 2.3264-7.4711 6.3523-6.0011 10.219 1.2481 3.2828 0.42583 4.6207-3.1297 5.0925-1.7046 0.22618 0.3763 0.23144 4.6242 0.0117 6.8011-0.35182 7.6544-0.21986 7.146 1.1052-0.31757 0.82758 0.16967 3.1614 1.0828 5.1862 2.2047 4.8892 0.16419 10.882-5.0202 14.744-1.8876 1.406-3.8016 3.1441-4.2535 3.8623-0.45186 0.71819-2.2968 2.9387-4.0998 4.9344-10.367 11.475-2.3789 28.767 14.66 31.734 7.8514 1.3673 8.5281 1.9825 8.4007 7.6375-0.17382 7.7154 2.7726 7.2782 3.6541-0.54216 0.70719-6.2741-2.245-8.7856-13.824-11.761-16.992-4.3656-16.576-21.399 0.72049-29.526 13.379-6.2867 20.487-26.862 10.387-30.067-3.8512-1.2223-2.0602-4.4656 2.0988-3.8006 3.335 0.5333 3.8958 0.36662 4.3281-1.2864 0.56667-2.167 2.273-2.3185 11.341-1.0073 6.7744 0.97962 14.27-0.67401 16.324-3.6012 0.66378-0.94603 3.2412-2.6463 5.7277-3.7783 3.2538-1.4814 4.7903-2.8313 5.4823-4.8165 0.52885-1.517 1.2786-2.7582 1.666-2.7582 0.38748 0 1.4874-1.8984 2.4442-4.2188 0.95686-2.3203 2.0628-4.2188 2.4577-4.2188 0.39485 0 0.67917-2.8477 0.63184-6.3281-0.0473-3.4805 0.22207-7.9102 0.5987-9.8438 0.45138-2.3174 0.33922-3.5156-0.32911-3.5156-4.1516 0-4.2018-17.045-0.079-26.83 5.5751-13.232 6.6924-14.362 20.391-20.623 20.146-9.2078 37.014 9.901 27.546 31.204-1.6427 3.6958-2.9866 8.02-2.9866 9.6094 0 2.8695-1.1943 3.8121-2.3863 1.8834-0.38899-0.6294-1.1324-0.27762-1.9846 0.93914-0.74948 1.07-1.1001 2.3704-0.77911 2.8897 0.75376 1.2196-0.33711 4.6775-1.4756 4.6775-0.48087 0-0.88773-2.2148-0.90413-4.9219-0.0275-4.5317-0.13895-4.7776-1.4062-3.1021-0.75704 1.0009-1.3829 3.1103-1.3908 4.6875-0.0276 5.503-5.8766 8.6824-7.0886 3.8533-1.0387-4.1385 1.123-20.618 2.8978-22.091 0.92637-0.76882 0.94463-1.7737 0.0851-4.6846-1.7211-5.8291-2.8626-6.396-5.9155-2.9381-5.0298 5.697-5.9459 15.952-3.5293 39.509 0.41147 4.011 0.13591 5.8739-1.2407 8.3875-2.1531 3.9314-4.5806 5.1796-3.532 1.8161 1.7183-5.5117 1.6012-12.669-0.32708-19.99-1.0782-4.0932-1.9603-8.1714-1.9603-9.0625 0-0.89117-0.47029-1.7771-1.0451-1.9687-1.6607-0.55357 0.51574-17.595 2.8253-22.122 5.3045-10.398 22.976-10.861 26.333-0.69076 0.72232 2.1887 1.4926 3.0502 2.4116 2.6975 0.93817-0.36001 1.3547 0.1563 1.3647 1.6915 0.0115 1.7706 0.19493 1.9303 0.92315 0.80343 11.08-17.144-20.865-28.854-36.696-13.452-7.0473 6.8566-11.091 23.793-7.7019 32.262 1.6576 4.1426 1.3732 17.196-0.49908 22.908-0.50696 1.5469-1.6783 5.2666-2.603 8.266-1.3514 4.3836-2.7515 6.4743-7.1368 10.657-3.0005 2.862-5.2429 5.4162-4.9831 5.676 1.1373 1.1373 9.1255-4.8388 12.363-9.2488 2.8988-3.9489 3.6544-4.5239 4.1371-3.1479 0.47982 1.3679 0.9473 0.99692 2.4931-1.9782 3.0595-5.8887 3.4806-9.9981 1.2839-12.531-2.0498-2.3634-1.7522-4.0286 0.56113-3.1409 2.8223 1.083 2.8846-1.813 0.21762-10.106-3.7721-11.73-2.854-22.649 2.3412-27.844 2.2798-2.2798 2.0874 0.65562-0.33967 5.1841-2.276 4.2466-2.436 12.16-0.35539 17.589 5.2025 13.573 5.051 20.596-0.72803 33.75-3.9411 8.9705-23.608 21.197-30.094 18.708-0.75167-0.28845-2.7474 0.80656-4.5356 2.4886-5.6306 5.2963-10.434 8.3346-13.178 8.3346-3.6427 0-3.3822-1.6527 0.37503-2.3791 2.8558-0.55209 10.879-6.5073 9.9795-7.407-0.55209-0.55209-19.589-1.8421-19.589-1.3274 0 0.22251 0.84375 2.0595 1.875 4.0822 5.9192 11.61-0.17478 23.256-16.875 32.248-7.7751 4.1864-10.243 9.823-7.025 16.046 1.423 2.7518 3.5783 3.6679 12.03 5.1136 18.361 3.1406 15.784 26.964-2.6769 24.741-7.5825-0.91285-7.6732-0.96918-8.9017-5.5314-1.0678-3.9654-2.4275-4.5192-6.9105-2.8148-6.2218 2.3655-6.2639 8.1031-0.0814 11.107 9.889 4.8044 11.584 20.463 3.0918 28.562-2.8337 2.7024-3.5589 3.992-3.0849 5.4856 0.56141 1.7689 0.3482 1.893-2.265 1.3191-3.9979-0.87809-6.385 0.0905-7.0837 2.8742-0.45875 1.8278-1.011 2.2308-2.437 1.7782-1.298-0.41198-1.8437-0.15026-1.8437 0.88423 0 2.4049 3.5388 5.2194 6.5625 5.2194 3.4441 0 3.6733 1.5941 0.40772 2.8357-8.4052 3.1957-15.33-10.464-8.8184-17.396 2.8678-3.0526 1.8819-3.7683-3.2223-2.3392-11.297 3.1629-19.966-11.287-12.264-20.442 2.0045-2.3822 2.1608-3.0908 1.2986-5.887-1.0549-3.4209-1.2437-20.394-0.29751-26.749 0.42286-2.8405 1.5605-4.8426 4.2368-7.4559 2.7911-2.7254 3.6587-4.3056 3.6587-6.6636 0-3.673-1.0983-3.9473-3.1665-0.79082-2.3939 3.6536-9.4457 7.3398-13.202 6.9013-3.1742-0.37057-3.2057-0.33758-3.2618 3.4153-0.0312 2.0842-0.16227 7.0531-0.29131 11.042-0.16554 5.1177 0.11035 7.3857 0.93728 7.705 0.64453 0.24884 1.1719 1.2845 1.1719 2.3015s0.46161 2.1344 1.0258 2.4831c0.56418 0.34869 0.83414 1.6365 0.5999 2.8619s0.1479 2.7041 0.84922 3.2861c2.5937 2.1526 1.6124 9.7532-1.6093 12.464-7.1446 6.0118-15.802 0.43305-15.874-10.229-0.028-4.1348-1.9602-7.232-5.1477-8.2514-7.8148-2.4993-10.794-9.5199-6.6217-15.604 3.4565-5.0408 4.0712-8.4879 1.5135-8.4879-16.354 0-18.957 12.33-6.1367 29.062 4.8609 6.3441 11.332 18.518 10.345 19.462-0.39951 0.38201-1.2042-0.10883-1.7883-1.0908-5.1984-8.7395-15.679-16.105-16.802-11.808-0.28926 1.1061-0.0288 1.875 0.63526 1.875 0.61907 0 2.9353 1.6875 5.1471 3.75s4.3558 3.75 4.7643 3.75c1.3732 0 7.4825 12.796 8.7945 18.42 3.9572 16.963 27.189 19.176 25.601 2.4393-0.44404-4.6803 2.5953-6.0191 3.6972-1.6286 4.1147 16.394-17.303 24.684-31.107 12.04-3.2652-2.9908-3.738-3.168-4.5913-1.7214-0.52318 0.88705-2.522 3.3552-4.4418 5.4848s-3.5018 4.1377-3.5156 4.4625c-0.0138 0.32477-2.3518 2.3472-5.1955 4.4942-15.727 11.874-14.009 23.377 3.2954 22.06 19.608-1.4919 23.407-0.61881 30.245 6.9501 9.7245 10.764 0.41841 32.439-12.711 29.606-9.5868-2.0687-13.822-7.5898-4.974-6.4844 7.5993 0.94947 11.806-4.7548 7.6672-10.396-1.3094-1.7847-1.4859-1.7655-9.1406 0.99269-7.3272 2.6402-8.6671 2.8155-21.868 2.8615l-14.062 0.049-1.76 3.701c-3.0861 6.4897-3.0088 9.7342 0.34157 14.337 3.3172 4.5569 2.7475 4.4882 17.356 2.0925 13.571-2.2255 23.906 6.4318 23.906 20.024 0 8.8849-13.466 18.423-20.611 14.599-3.1858-1.705-2.2185-5.814 1.6266-6.9101 3.3761-0.96244 4.0094-3.2509 1.5737-5.6866-2.5762-2.5762-5.0002-1.6266-11.549 4.5243-7.5486 7.0896-10.357 8.6815-16.831 9.5403-5.5974 0.74251-5.4941 0.56799-2.6317 4.4466 5.6332 7.6332 6.9792 17.522 3.884 28.535-5.4612 19.43-38.587 24.198-43.941 6.3248-0.50493-1.6857-1.3907-1.8787-8.7753-1.9115-4.5175-0.0201-9.3056-0.32739-10.64-0.68294-3.399-0.90553-6.4212 1.3606-4.9496 3.7114 0.84404 1.3484 2.0356 1.6346 5.8191 1.398 5.0272-0.31437 10.892 2.2224 16.088 6.9595 1.2891 1.1751 4.4531 2.596 7.0312 3.1576 2.5781 0.56165 7.2188 1.8042 10.312 2.7613 3.0938 0.95706 10.688 2.4458 16.875 3.3082 21.762 3.0333 24.426 3.5788 30.209 6.1849 3.6177 1.6303 8.4681 5.0598 12.768 9.0275 6.576 6.0683 9.9983 8.9754 15.824 13.442 6.4563 4.9501 26.476 10.836 30.979 9.1086 0.76866-0.29497 1.7085-3.8057 2.4765-9.2511 1.375-9.7484 3.0349-14.805 6.3229-19.26 2.8683-3.8867 2.9853-3.6137-2.8334-6.61-7.7399-3.9857-14.895-13.357-18.93-24.792-1.8806-5.3303-0.0586-4.3314 2.8158 1.5436 6.5108 13.308 19.736 22.022 25.603 16.871 0.90235-0.79226 3.048-2.5478 4.7682-3.9012 2.6343-2.0726 5.1334-6.0306 4.9144-7.7833-0.0322-0.25781-2.8959-0.55887-6.3639-0.66903-7.603-0.24149-10.813-2.1963-19.314-11.76-6.6266-7.4559-6.4234-9.0037 0.50226-3.8244 8.4684 6.333 20.046 10.118 24.868 8.1297 4.7328-1.9517 3.7032-3.5149-5.096-7.7371-16.511-7.9227-28.912-19.811-36.958-35.433-2.5991-5.046-5.279-9.8074-5.9553-10.581-1.9775-2.2614-6.2407-11.25-5.3359-11.25 0.45464 0 2.9764 3.5055 5.6038 7.79s5.686 8.6087 6.7968 9.6094 2.4433 2.8741 2.9612 4.1632c0.51791 1.2891 1.1296 1.8401 1.3592 1.2245 0.56983-1.5273 2.9367-0.48557 4.1815 1.8404 0.85508 1.5977 0.77486 1.8126-0.49479 1.3254-1.854-0.71146-1.8811-0.31268-0.19813 2.9218 1.3851 2.6621 6.1828 7.5937 6.1828 6.3553 0-0.39699-0.88977-1.9714-1.9773-3.4986-3.959-5.5599-0.82967-3.5566 6.7067 4.2934 5.3556 5.5785 8.384 8.0377 9.8981 8.0377 1.2492 0 2.627 0.8324 3.224 1.9477 0.5733 1.0712 1.6032 1.7325 2.2886 1.4695 0.68544-0.26304 1.9841 0.33706 2.8859 1.3335 0.9018 0.99648 2.367 1.8118 3.256 1.8118 0.88903 0 4.0932 1.0883 7.1203 2.4185 8.1248 3.5702 8.8677 3.8687 13.473 5.4148 7.9303 2.6626 32.812 2.9554 32.812 0.3861 0-0.48816-2.3009-3.4706-5.1132-6.6278-4.784-5.3707-6.3246-8.3816-2.6269-5.1343 0.9055 0.79523 2.5216 1.7116 3.5913 2.0365 1.0697 0.32483 2.5463 1.9568 3.2812 3.6265 1.4531 3.301 2.5671 3.8158 16.914 7.8147 30.518 8.5064 52.365-32.117 24.5-45.557-7.9684-3.8434-7.9892-3.8934-2.8125-6.7436 6.6284-3.6494 5.3157-9.1968-2.1763-9.1968-4.8281 0-4.6595-1.235 0.5102-3.7376 5.175-2.5052 6.6625-2.068 11.124 3.2691 5.4035 6.4643 12.937 5.2166 14.216-2.3545 1.2028-7.1192-2.7041-10.385-13.596-11.365-3.8672-0.34786-8.2226-0.939-9.6787-1.3136-2.2413-0.57669-3.1792-0.162-6.1133 2.7031-4.0477 3.9525-9.9284 5.765-9.3746 2.8894 0.18472-0.95911 1.8095-2.6753 3.6106-3.8138 5.4998-3.4764 9.2687-8.0568 11.079-13.465 2.4581-7.343 5.1193-7.7602 4.2862-0.67203-0.66523 5.66 2.768 8.6305 7.2207 6.2475 2.8086-1.5031 2.0896-2.763-1.5769-2.763-4.1201 0-3.9321-0.58319 1.77-5.4894 5.3597-4.6116 8.0305-5.4372 12.885-3.9828 6.2781 1.881 6.2835 4.9229 0.006 3.2472-4.5386-1.2115-6.6137-0.15884-6.6137 3.3551 0 6.1493 5.4521 8.5485 11.431 5.0303 3.3606-1.9774 3.3637-1.9958 2.104-12.626-0.93806-7.9161 4.1664-13.44 12.419-13.44 6.0257 0 8.7708-3.2373 3.8604-4.5525-4.0694-1.09-6.3214-0.59904-12.282 2.6775-13.658 7.5076-21.732 1.1977-20.991-16.406 1.0538-25.055-3.3344-35.642-15.195-36.661-9.1953-0.79021-19.79-5.4941-24.528-10.89-3.7666-4.2899-2.0089-5.4263 2.247-1.4527 10.316 9.6315 24.997 12.456 28.322 5.4496 1.7929-3.7784 1.2273-5.1956-2.0735-5.1956-4.0616 0-13.81-2.8755-15.783-4.6554-1.0312-0.93036-2.7188-1.9517-3.75-2.2696-2.1615-0.6664-8.9062-6.8263-8.9062-8.134 0-1.3476 2.156-1.0461 4.5598 0.63758l2.1644 1.516-1.4253-2.7562c-2.2259-4.3044-4.1494-5.5772-5.8534-3.8732-3.9243 3.9242-18.268-1.7276-21.711-8.5545-4.8724-9.6622-0.6486-15.117 18.516-23.91 1.8047-0.82809 4.4431-2.1471 5.8632-2.9311 1.4201-0.78399 3.0021-1.1658 3.5156-0.84839 2.4101 1.4895 0.23631 3.165-7.8438 6.0455-19.665 7.0106-25.822 17.906-13.325 23.582 8.0275 3.6459 13.271 1.9817 23.179-7.3561 15.522-14.629 25.914-18.841 34.079-13.812 7.4821 4.6083 18.347 0.98892 14.172-4.721-1.2616-1.7254-1.4163-1.7112-5.6823 0.52394-4.1301 2.1639-4.4562 2.2021-5.6033 0.65701-0.66986-0.90235-2.3316-1.6406-3.6927-1.6406-2.5615 0-3.3592-1.3508-1.3029-2.2062 0.64454-0.26811 0.16369-0.40873-1.0685-0.31251-3.3002 0.25774-3.4798-1.8959-0.21778-2.6124 4.4663-0.98096 5.4173-2.9084 2.0194-4.0929-1.5634-0.545-2.8425-1.594-2.8425-2.3311 0-0.73712-0.63281-1.8654-1.4062-2.5073-1.62-1.3445-1.882-3.75-0.40837-3.75 0.54884 0 3.0242 1.7454 5.5008 3.8787 2.9512 2.5421 5.5554 3.9615 7.557 4.119 1.6797 0.13213 3.3704 0.75206 3.757 1.3776 0.50235 0.81281 0.88592 0.84128 1.3442 0.0998 0.3527-0.57068 2.3096-1.0376 4.3487-1.0376s4.44-0.37266 5.3353-0.82812c2.0467-1.0412 5.8019-2.5871 7.9915-3.2898 2.5698-0.8248 2.9742 1.8162 0.75517 4.9325-1.0794 1.5159-1.9651 3.3238-1.9683 4.0176-0.003 0.69385-0.59563 2.3921-1.3166 3.774-1.3846 2.6539-2.0476 19.169-1.1631 28.975 1.1061 12.264 6.9542 38.459 10.865 48.669 5.231 13.655 3.9156 23.438-3.1516 23.438-2.268 0-1.7531-1.2432 1.214-2.9309 5.3282-3.0307 5.0867-6.2003-2.2053-28.944-6.0338-18.819-6.858-22.199-7.5708-31.046-0.30679-3.8077-1.1994-9.6431-1.9835-12.968-0.80745-3.4234-1.1785-7.5904-0.85564-9.6094 0.8014-5.0117-4.8459-4.9659-10.611 0.0861-1.2391 1.0858-2.7595 1.9741-3.3787 1.9741-3.1745 0-6.1756 4.6644-6.4823 10.075-0.16813 2.9667-1.0113 7.2925-1.8737 9.6128-2.4034 6.4664-4.2938 13.866-4.2938 16.806 0 1.4587-0.63742 4.1778-1.4165 6.0424-1.3134 3.1434-1.2711 3.7828 0.58171 8.7864 2.6919 7.2697 4.6787 15.469 5.397 22.271 0.56073 5.3103 0.67263 5.5148 2.0002 3.6552 4.5647-6.3939 11.478-6.5354 18.281-0.37398 2.8469 2.5781 5.8044 4.6875 6.5724 4.6875 0.76797 0 1.3963 0.42187 1.3963 0.9375 0 1.9482-5.3171 0.9173-7.555-1.4648-6.0971-6.4901-10.009-7.097-13.91-2.1582-8.9914 11.384-2.9275 24.36 8.1767 17.497 5.311-3.2823 18.79-3.6694 21.679-0.62253 2.4414 2.5752 4.0438 6.2162 3.2798 7.4524-0.29194 0.47235 0.52134 0.85883 1.8073 0.85883 8.9894 0 17.787-10.817 14.643-18.003-1.0724-2.4506-5.7238-25.707-8.4934-42.466-1.0225-6.1875-3.5144-18-5.5375-26.25-5.8873-24.008-7.1893-34.181-4.6939-36.677 0.52682-0.52682 1.209-7.0448 1.516-14.484l0.55817-13.527-2.8954-6.1874c-3.2031-6.8448-9.4536-13.969-12.256-13.969-0.995 0-2.4419-0.63281-3.2153-1.4062-0.77344-0.77344-2.5966-1.4248-4.0513-1.4474-1.4548-0.0226-4.3326-0.68369-6.3951-1.469-2.0625-0.78534-6.7031-1.5051-10.312-1.5995-5.1321-0.1342-6.5625-0.47814-6.5625-1.5779 0-1.5033 0.20145-1.511 13.913-0.53115 4.0427 0.28889 7.717 0.75181 8.165 1.0287 0.44803 0.27691 1.6755 0.0673 2.7277-0.4658s2.7512-1.3911 3.7754-1.9068c1.0242-0.51563 2.7118-0.9375 3.75-0.9375 2.1098 0 2.3706-1.6099 1.0222-6.3113-0.5904-2.0586-0.43339-5.4832 0.49401-10.775l2.221-12.673c1.1366-6.486 6.1017-16.754 9.0289-18.672 4.5664-2.992 12.559 5.2747 12.559 12.99 0 1.9616 0.37614 3.5665 0.83587 3.5665 1.4121 0 1.8948-4.0024 1.0177-8.4375-0.45891-2.3203-0.85276-4.6-0.87521-5.0659-0.0224-0.46593-1.7986-2.4699-3.947-4.4533-4.2156-3.8918-4.3178-4.9961-0.37086-4.0055 1.5782 0.39611 3.6707 2.3575 5.649 5.295 2.4108 3.5799 3.2244 4.2623 3.4956 2.9321 0.30364-1.4897 0.60099-1.3617 2.1123 0.9096 4.1176 6.1883 0.58673 21.09-6.1988 26.161-20.04 14.977-14.35 37.523 8.1327 32.223 7.7696-1.8317 9.8861-1.514 12.56 1.8854 3.4456 4.3803-0.71093 9.7437-7.5511 9.7437-2.8563 0-1.9595-2.6142 1.1296-3.2927 7.3967-1.6246 2.7603-3.7385-8.1994-3.7385-9.0928 0-10.786-0.25115-13.05-1.9357-12.458-9.2712-13.324-24.791-2.1036-37.706 5.9861-6.8904-0.12068-12.599-6.7172-6.2787-8.5583 8.1994-8.1168 27.57 0.99321 43.577 9.6913 17.028 10.885 28.22 4.4003 41.258-4.4869 9.0219-4.4662 9.4773 1.5555 34.132 2.7811 11.387 5.5666 24.289 6.1899 28.672 0.62338 4.3828 2.3558 14.18 3.8497 21.772 1.494 7.5918 2.7257 14.553 2.7372 15.469 0.0114 0.91605 0.84583 2.7202 1.8542 4.0093 9.5226 12.174-14.075 32.594-28.841 24.958-4.306-2.2267-6.2876-1.8849-8.8481 1.5263-3.605 4.8027-3.6247 4.9393-1.1856 8.2454 5.64 7.69-1.06 17.78-11.82 17.78h-3.21l2.6267 2.4356c9.7908 9.0785 2.911 23.524-11.707 24.582l-5.6282 0.4071 3.7382 3.866c18.119 18.739 9.6522 44.826-17.417 53.663l-7.0569 2.3036-13.066-1.9095c-15.054-2.2001-18.607-2.3022-29.684-0.85294-5.2965 0.69299-10.01 0.76314-13.7 0.20388-8.0836-1.2253-8.6003-0.95874-11.782 6.0786-2.8251 6.2478-12.117 17.036-14.673 17.036-0.66067 0-1.2012 0.63225-1.2012 1.405s-1.8494 3.8313-4.1097 6.7969c-4.8083 6.3084-5.2818 7.892-6.1339 20.512-1.0726 15.885-8.1608 18.869-26.788 11.274zm-107.16-34.07c2.8618-2.7418 3.2018-4.867 1.5621-9.7628-2.4425-7.2924-8.4002-9.7138-17.214-6.9962-4.7645 1.4691-11.631 2.0031-10.44 0.81197 0.35952-0.35952-1.112-1.3087-3.2701-2.1094-6.3954-2.3727-7.9815-6.4974-6.4519-16.778 1.7759-11.937 3.3597-13.556 17.49-17.88 8.069-2.4693 10.781-6.8299 11.139-17.913 0.10869-3.3635 0.50606-7.5197 0.88304-9.2361l0.6854-3.1206-3.1423 0.67512c-5.1092 1.0977-6.1371 2.033-6.6797 6.0784-1.7501 13.048-19.11 19.031-24.572 8.4681-3.9036-7.5487 2.1019-21.593 9.2334-21.593 0.86366 0 1.1898-0.63717 0.8978-1.7539-0.65881-2.5193 3.2544-3.249 8.1536-1.5205 7.5217 2.6538 14.981 0.48263 14.981-4.3606 0-2.3286-2.9458-5.5589-3.5142-3.8535-1.389 4.1669-3.3952 5.0346-13.371 5.7829-10.089 0.76-16.869 2.94-16.869 5.44 0 0.69348-1.0973 3.8679-2.4384 7.0543-5.3001 12.592 0.91153 23.763 12.976 23.336 5.5825-0.19759 5.5934 0.69954 0.06329 5.2017-12.028 9.792-15.288 13.894-15.299 19.25-0.01617 7.7682-0.96828 12.172-2.5041 11.583-3.2811-1.2591 1.5175 12.453 5.7069 16.307 3.5843 3.2978 11.653 2.9639 16.725-0.69201 9.5512-6.885 14.875-8.3774 19.166-5.3722 4.1076 2.8771 3.5832 12.661-0.6786 12.661-1.0131 0-1.842 0.35156-1.842 0.78125 0 2.9499 5.3482 2.6472 8.6206-0.4879zm-23.625-23.67c0-0.48519-0.42188-1.1429-0.9375-1.4616-5.7535-3.5558 2.3302-13.276 10.162-12.22 10.695 1.4433 20.099-8.59 15.241-16.26-0.87832-1.3867-2.903-0.67219-2.903 1.0245 0 4.8612-7.1395 9.4051-15.257 9.7101-11.513 0.43258-17.882 7.7559-13.653 15.697 1.8938 3.5557 7.3469 6.1604 7.3469 3.5093zm60.81-2.5978c1.3591-0.99616 3.873-3.8786 5.5865-6.4055l3.1155-4.5943-0.42818-10.579c-0.42-10.33-1.31-13.38-3.9-13.38-0.63039 0-1.8933-0.82556-2.8064-1.8346-0.91315-1.009-4.6699-2.9843-8.3484-4.3895s-8.0772-3.3742-9.775-4.3754-3.2857-1.6216-3.5288-1.3786c-0.9126 0.91259 3.6528 5.5399 7.3031 7.4021 15.999 8.162 20.544 34.24 5.6694 32.532-4.3499-0.49962-3.743-4.9869 0.67442-4.9869h3.2812l0.27963-5.3393c0.42335-8.0837-5.2132-16.585-12.538-18.909-4.2012-1.3334-7.8665-6.539-9.2457-13.131-0.72825-3.4807-2.0535-7.4418-2.945-8.8024l-1.621-2.4739-0.87743 2.2967c-3.1252 8.1804 2.8225 22.92 10.726 26.582 5.2799 2.4461 9.8556 7.1606 8.7251 8.9897-1.0133 1.6395-3.2241 1.029-5.4008-1.4914-1.1568-1.3394-3.6134-3.2098-5.4592-4.1564-7.3676-3.7783-12.07-9.2964-13.556-15.908-1.1729-5.2181-1.3224-5.485-1.0403-1.8569 0.4882 6.2791 6.0781 17.425 9.3657 18.675 9.9678 3.7897 13.1 13.841 5.5396 17.775-4.2756 2.2248-2.7819 5.3792 4.2188 8.9088 7.2221 3.6413 12.776 3.9129 16.982 0.83031zm-37.035-8.2446c3.6337-1.5182 7.2162-7.058 7.0957-10.972-0.0489-1.5912-0.41864-1.1836-1.4286 1.5754-1.4671 4.0076-5.6203 8.9342-7.5316 8.9342-0.64653 0-1.4362 0.42188-1.7549 0.9375-0.76857 1.2436-0.36665 1.1909 3.6194-0.47462zm-47.514-16.4c6.5009-1.4685 9.2127-4.295 6.1093-6.3677-1.1942-0.79761-3.4291-3.2783-4.9664-5.5127l-2.7951-4.0625-4.4012 2.3429c-6.7027 3.5681-16.727 2.6784-21.828-1.9372-1.0003-0.90524-2.0817-1.3829-2.4032-1.0614-2.142 2.142 20.153 18.837 24.034 17.997 0.77344-0.1674 3.5862-0.79679 6.2506-1.3986zm-9.6085-15.576c2.605-1 1.591-2.24-1.829-2.24-9.0441 0-17.265-8.2018-22.525-22.473-1.7489-4.7452-1.7141-0.65113 0.0448 5.2718 4.1451 13.958 15.317 22.895 24.308 19.445zm34.457-6.4669c3.6306-5.2519 3.4181-6.089-1.5458-6.089-6.2348 0-8.5824 4.4128-4.8842 9.1808 1.5128 1.9505 3.6571 0.91941 6.43-3.0918zm-35.787-0.91c0-2.7337-3.1375-9.4454-5.7061-12.206-4.7143-5.0676-5.8027-12.403-3.6045-24.295 0.55109-2.9811 0.79954-5.6226 0.55212-5.8701-0.68146-0.68146-8.1166 6.3077-8.1166 7.6297 0 0.63422-0.67918 2.5146-1.5093 4.1786-3.4214 6.8583 2.9966 25.704 10.262 30.135 3.5814 2.1838 8.1219 2.4231 8.1219 0.42806zm8.5652-0.7221c0.42661-7.046 0.91032-9.9067 2.2494-13.303l1.5011-3.8068-1.9203 1.8822c-2.817 2.75-5.251 17.33-2.895 17.33 0.51562 0 0.99497-0.94922 1.0652-2.1094zm104.07-4.11c18.205-12.729 23.116-13.847 28.727-6.5413 2.7042 3.5211 2.6198 5.3423-0.39844 8.599-2.8668 3.0934-1.5492 4.2376 2.1151 1.8367 16.835-11.031-1.7215-27.678-20.756-18.619-10.557 5.0241-22.156 2.6577-22.769-4.645-0.33531-3.9985 0.97679-4.5033 3.1368-1.2068 3.2327 4.9337 9.7021 5.8712 19.42 2.8143 3.6926-1.1616 1.2538-2.0178-4.4447-1.5604l-6.0854 0.48848-3.7141-4.0632c-4.9897-5.4587-5.9743-12.898-3.1875-24.083 0.90135-3.6177-1.3427-2.3321-4.0913 2.3438-2.0326 3.4578-2.6366 5.7103-2.7027 10.078-0.1094 7.2348-2.1908 7.7383-3.8752 0.9375l-1.161-4.6875 0.39098 6.5625c0.21503 3.6094 0.67824 7.5117 1.0294 8.6719 1.1832 3.9094-1.1164 2.1487-3.3097-2.5342-3.5698-7.6218-0.90041-22.7 5.3297-30.104l2.3921-2.8428-2.1583-2.2974c-6.8407-7.2816-13.902 16.217-10.044 33.422 0.74904 3.3398-2.1338 1.1694-3.406-2.5643-3.6027-10.573 0.86718-28.332 8.5378-33.92 2.811-2.0477 2.4174-4.8635-0.67998-4.8635-4.992 0-16.175 8.3427-17.309 12.913-0.34885 1.4057-1.3906 3.3995-2.3151 4.4308-2.7118 3.0251-4.7827 17.263-3.8181 26.25 0.95455 8.8939 2.27 13.097 3.3006 10.547 1.0672-2.6411 2.1547-1.9387 4.6636 3.0123 8.2924 16.364 23.571 21.141 37.182 11.624zm-22.327-0.60444c-1.4575-1.1769-4.443-3.2923-6.6344-4.7008-2.4901-1.6005-3.9844-3.2591-3.9844-4.4226 0-1.9275 1.3606-2.5149 2.301-0.99337 2.1257 3.4394 12.391 8.6327 15.968 8.0788 9.2713-1.4352 12.668-1.6009 12.668-0.61802 0 0.55557-1.1602 1.2643-2.5781 1.5749-1.418 0.31062-4.4462 1.1624-6.7295 1.8929-5.7337 1.8343-7.9351 1.672-11.011-0.81175zm-18.88-21.84c0.16328-1.9482 0.85234-3.7247 1.5312-3.9479 0.90664-0.29806 1.1555 0.53464 0.9375 3.1363-0.16328 1.9482-0.85234 3.7247-1.5312 3.9479-0.90664 0.29806-1.1555-0.53464-0.9375-3.1363zm-67.672 15.67c0-7.8996 12.73-17.928 22.777-17.943 4.0148-0.006 8.1605-3.2986 8.1605-6.4815 0-1.8001-0.1069-1.8126-2.7093-0.31908-1.4901 0.8552-2.5143 2.0631-2.2759 2.6842 0.54338 1.416-2.2441 2.3341-6.9009 2.273-10.216-0.13415-15.008 2.2839-18.608 9.3893-2.3367 4.6113-3.3451 13.819-1.3803 12.605 0.51562-0.31867 0.9375-1.3123 0.9375-2.2081zm-6.2294-8.1936c-0.38095-7.6492-1.8426-12.263-2.9968-9.4591-1.3634 3.3122-1.3752 6.0961-0.04228 9.9198 1.2622 3.6208 3.2275 3.3229 3.0391-0.46069zm21.178-2.6614c1.5842-1.9088 0.54098-1.8633-2.8215 0.12294-3.7297 2.2032-4.6193 4.5629-1.0181 2.7006 1.4417-0.74552 3.1695-2.0161 3.8396-2.8236zm22.016-5.7538c1.5566-1.5566 1.8699-3.9021 0.86954-6.5091-0.47989-1.2506-4.9355 5.6362-5.0128 7.7479-0.0314 0.85858 2.9318-0.0275 4.1432-1.2388zm-29.556-6.8733c5.4641-4.7194 6.0567-6.6535 2.0385-6.6535-4.1803 0-8.2391 3.9184-8.663 8.3633-0.40679 4.2656-0.24571 4.224 6.6245-1.7099zm47.966-0.12395c3.0642-1.6399 2.227-3.717-1.498-3.717-4.7988 0-9.6619-2.3359-13.202-6.3416-3.6991-4.185-4.1426-2.8828-0.75822 2.2264 5.013 7.5679 10.633 10.415 15.459 7.8322zm-31.137-4.8047c2.5955-2.5376 3.8235-6.4564 1.7834-5.6912-2.9815 1.1183-9.134 8.6539-7.0655 8.6539 1.2631 0 3.5823-1.3008 5.2821-2.9627zm131.52-0.38514c4.0983-2.1193 6.9155-8.7582 5.5159-12.999-1.0058-3.0474-5.8208-6.2897-7.2372-4.8732-0.32722 0.32722 0.003 0.6082 0.73318 0.6244 8.2643 0.18332 4.5079 15.984-3.8702 16.279-2.8614 0.10095-3.6459 0.99435-1.5986 1.8204 2.0875 0.84234 3.5549 0.64873 6.4568-0.85192zm-155.73-6.9c15.219-1.1541 25.133-4.5146 30.361-10.291 2.32-2.5635 1.0929-2.5593-1.5919 0.006-4.7523 4.54-9.665 5.8007-25.039 6.4253-10.404 0.42268-15.53 1.0303-18.047 2.1396-4.4262 1.9505-4.7224 3.9549-0.46875 3.1719 1.6758-0.30845 8.3294-0.96143 14.786-1.4511zm44.042-2.33c0-0.39798-6.4143-10.082-7.2037-10.875-0.2564-0.25781-0.25559 1.5669 0.0019 4.0549 0.25737 2.488 0.61199 4.62 0.78805 4.7376 2.0226 1.3522 6.4138 2.7782 6.4138 2.0829zm13.517-1.132c0.81-0.31 1.48-0.97 1.48-1.46 0-0.49089-0.45429-0.61176-1.0096-0.2686-2.4433 1.51-9.3517-2.5346-12.621-7.3892-2.869-4.2603-3.2445-4.5377-3.2445-2.3975 0 1.3312 0.84375 3.1839 1.875 4.1172 1.0312 0.93327 1.875 2.2002 1.875 2.8154 0 0.96954 3.8847 3.063 8.4375 4.547 0.77344 0.25209 1.4772 0.49166 1.564 0.53236 0.0867 0.0407 0.82502-0.18205 1.6406-0.49503zm-88.101-9.0195c0.36444-3.7497 1.4849-8.6876 2.4898-10.973l1.8272-4.1553-4.7555-4.16c-4.6278-4.0483-10.254-12.351-10.291-15.186-0.0099-0.77344-1.0697-3.6655-2.3552-6.4269-3.3894-7.2809-4.0656-16.391-1.596-21.502 2.0879-4.3215 0.91804-5.4523-2.1422-2.0707-2.0207 2.2328-3.2812 2.408-3.2812 0.45603 0-0.78043-0.52734-2.2845-1.1719-3.3423-1.7252-2.8315 1.892-5.5512 7.3833-5.5512 7.5114 0 9.985 3.4093 14.965 20.625 16.688 57.693 64.579 74.089 64.601 22.118 0.0037-9.4842 1.743-12.257 2.8901-4.6077 0.58448 3.8976 0.81202 4.2545 1.7065 2.6762 2.38-4.1994 10.642-12.022 14.591-13.815 9.7037-4.4064 19.959-13.774 21.262-19.422 0.30687-1.3299 1.2249-3.4726 2.0401-4.7617 0.81518-1.2891 2.1729-4.8521 3.0172-7.9179 1.7794-6.4616 3.7151-7.9941 3.7151-2.9414 0 1.8476 0.2699 3.3594 0.59977 3.3594 1.1091 0 3.0902-3.2642 3.1296-5.1562 0.0215-1.0312 1.1331-4.1953 2.4704-7.0312 5.5062-11.677 7.046-20.715 3.9042-22.916-3.6129-2.5306-5.0107-1.8336-6.6784 3.3302-0.85079 2.6343-3.2785 6.8578-5.3949 9.3856-2.5443 3.0389-3.6454 5.124-3.25 6.1544 2.4458 6.3736-4.7325 17.17-11.416 17.17-3.0207 0-3.8577 0.46097-5.3143 2.9268-4.1869 7.0879-22.103 24.261-25.311 24.261-2.2498 0-4.1756 3.2842-4.8334 8.2427-0.47864 3.6082-1.4029 5.7511-3.405 7.8943-1.5114 1.618-3.3446 4.0954-4.0738 5.5055-4.9667 9.6045-21.664 11.163-27.442 2.5614-0.86877-1.2934-3.1675-4.7261-5.1083-7.6282-2.0481-3.0626-4.1175-7.7454-4.932-11.161-6.2654-26.271-12.848-33.454-30.726-33.529-18.682-0.0788-16.108 39.585 4.6947 72.367 1.5391 2.4253 3.5318 6.3304 4.4283 8.6779 2.1329 5.5848 2.9564 4.8279 3.7616-3.4573zm168.18 3.0557c2.6329-0.49932 6.479-1.9759 8.5468-3.2812 2.0678-1.3054 4.8228-2.3734 6.1221-2.3734s2.3624-0.42188 2.3624-0.9375c0-1.409-5.788-1.1276-10.42 0.50668-10.631 3.7507-21.163 2.2695-27.722-3.8986-3.6457-3.4286-3.9008-4.7774-0.99892-5.2817 2.0293-0.35266 2.0115-0.40767-0.46875-1.4482-6.0073-2.5204-3.6904-12.655 5.4018-23.628 10.427-12.584 14.146-29.245 8.6849-38.906-1.8743-3.316-2.0347-2.2858-0.64962 4.1726 1.5619 7.2828-3.0601 23.466-7.1503 25.035-2.3825 0.91424-2.4908-0.18794-0.37134-3.7801 1.104-1.8711 2.7745-6.3847 3.7121-10.03l1.7049-6.628-2.317-7.9921c-3.5306-12.178-7.8634-16.877-6.5525-7.106 2.7936 20.822 1.5693 29.339-5.3892 37.491-7.9056 9.2617-8.9332 18.248-3.4311 30.006 3.6692 7.841 3.312 11.582-0.72081 7.5496-0.875-0.875-1.125-0.875-1.125 0 0 5.8701 19.742 12.623 30.781 10.53zm-78.183-1.1113c3.4737-1.5827 6.1668-7.9533 6.7449-15.955 0.82444-11.412 2.9337-14.252 13.068-17.595 3.8962-1.2854 8.4435-1.0991 5.8859 0.24106-11.568 6.0616-16.382 11.074-15.392 16.025 0.83788 4.1894 1.6633 4.5129 5.2673 2.0639 1.7926-1.2181 5.6622-2.7525 8.5991-3.4097l5.3398-1.195-0.0131-8.2514c-0.0145-9.1094 1.2901-14.856 4.3412-19.124 3.2398-4.531 5.999-11.303 7.4864-18.374 1.6428-7.8094 1.6716-8.3451 0.44932-8.3451-0.51563 0-0.9375 1.4517-0.9375 3.2259 0 1.7743-0.36998 3.4546-0.82219 3.7341-0.45221 0.27949-1.3163 2.4704-1.9202 4.8688-2.5185 10.002-10.08 19.416-20.681 25.747-11.844 7.0733-13.266 9.1044-14.554 20.777-1.3141 11.915-13.895 11.423-13.787-0.53913 0.089-9.9001 8.4501-20.932 18.952-25.006 7.252-2.8129 13.125-6.3945 13.125-8.004 0-1.5354-2.0183-1.7811-4.4658-0.54368-0.89535 0.45267-3.1045 1.5052-4.9092 2.3388-22.554 10.419-33.172 33.229-21.091 45.31 3.2835 3.2835 5.4782 3.757 9.3142 2.0092zm42.8-10.438c-1.0101-2.3565-1.8472-5.6858-1.8601-7.3983-0.0129-1.7126-0.0502-3.9575-0.0827-4.9888-0.28598-9.0675 5.6976-25.284 10.402-28.191 4.0283-2.4896 7.4071-15.571 5.5351-21.43-0.50599-1.5835-1.7566-6.6759-2.7792-11.317l-1.8592-8.4375 0.5389 12.711c0.61639 14.538-0.72644 19.411-9.4622 34.334-8.6724 14.815-8.9822 24.76-1.1393 36.57 2.6702 4.0211 2.9312 3.3369 0.70665-1.8527zm40.495 1.9984c6.8514-2.081 7.1586-2.0658 16.029 0.79754 4.3303 1.3978 0.53011-1.8958-4.5972-3.9844-6.6105-2.6927-9.0688-2.7951-18.798-0.78301-7.0102 1.4497-12.825 1.3949-16.808-0.15851-1.8547-0.72337-1.8555-0.70906-0.0719 1.3217 4.1342 4.707 14.166 5.8683 24.246 2.8066zm-169.03-16.32c0-0.28557-1.4976-4.9954-3.328-10.466-1.8304-5.4708-3.9228-12.304-4.6498-15.184-3.0218-11.972-5.2788-15.337-6.6426-9.9032-1.834 7.3073 4.244 27.303 10.039 33.026 2.8628 2.8272 4.5817 3.7755 4.5817 2.5276zm46.208-5.0436c1.7006-1.7693 1.822-2.2487 0.67572-2.6689-2.477-0.91-6.572-5.63-6.572-7.58 0-2.6393-1.0548-3.0358-5.7554-2.1633-5.2279 0.97041-9.658-0.20409-14.13-3.7461-4.8691-3.8564-4.8535-1.2038 0.03739 6.3397 7.6708 11.831 19.48 16.334 25.744 9.8169zm8.166-14.29c0-6.0939-3.6284-8.272-13.78-8.272-9.3239 0-13.296-2.5124-13.27-8.3935 0.0081-1.8289-0.65233-5.1713-1.4676-7.4275-2.9337-8.1186-0.59678-16.356 6.9084-24.35 7.8641-8.3763 10.914-16.954 8.9673-25.22-0.49139-2.0868-0.37782-3.0469 0.36044-3.0469 1.6882 0 2.8979 4.2775 2.9999 10.608 0.06967 4.3233 0.2844 5.2021 0.84405 3.4546 2.0915-6.5307-0.51451-27.759-4.0748-33.193-0.8538-1.3031-2.6532-4.3872-3.9986-6.8537s-3.6546-6.0285-5.1314-7.9156c-1.4769-1.8871-3.741-6.2361-5.0315-9.6645-3.0517-8.1077-3.2062-8.3275-4.8778-6.9401-4.3873 3.6411-5.6266 14.336-2.7021 23.317 0.75553 2.3203 1.6673 5.4844 2.0262 7.0312 0.45244 1.9502 0.77127 2.3095 1.04 1.1719 0.76045-3.2198 4 0.55255 4 4.6578 0 0.83748 0.69668 2.2925 1.5482 3.2334 8.8763 9.8082 6.5078 30.179-5.3035 45.614-5.9689 7.8001-8.3987 21.09-4.4006 24.07 0.69405 0.51731 2.3882 3.2609 3.7647 6.0968 5.7807 11.909 7.5291 12.804 16.762 8.5775 8.1956-3.7518 11.054-2.3912 11.098 5.2836l0.03119 5.3576 1.8438-2.2132c1.0141-1.2173 1.8438-3.4599 1.8438-4.9835zm-19.007-82.34c-0.2938-0.77344-0.81458-3.0938-1.1573-5.1562-0.3427-2.0625-1.9965-6.0703-3.6751-8.9062s-3.5916-6.5273-4.2512-8.2031c-0.65956-1.6758-1.5355-3.0469-1.9465-3.0469-3.2714 0-5.4412-8.876-3.2199-13.172 2.1951-4.2448 3.5805-3.5025 2.828 1.5154-0.71739 4.7839 1.341 9.4139 3.7706 8.4815 1.3645-0.5236 1.6182 0.1525 2.7742 7.3934 0.32928 2.0625 1.3881 4.5995 2.353 5.6378 3.2143 3.4589 4.6657 8.304 3.8263 12.773-0.43802 2.3321-0.99746 3.4846-1.3021 2.6826zm64.288 73.594c3.2186-2.0601 5.1835-4.3172 7.345-8.4375 1.623-3.0938 4.5025-7.1492 6.3987-9.0121 11.586-11.383 19.87-32.874 14.674-38.07-0.59491-0.59491-0.69194-0.32445-2.9332 8.1759-1.6135 6.1194-4.3422 12.38-6.5378 15-0.64818 0.77344-1.68 2.9687-2.2928 4.8783-0.61289 1.9096-3.303 5.7065-5.9779 8.4375-2.675 2.731-5.9182 7.0028-7.2073 9.4929s-4.3477 6.4094-6.7969 8.7094c-6.4548 6.0618-5.3003 6.3482 3.3279 0.82558zm12.766-1.7482c2.5104-4.0619 3.6882-9.4551 1.9374-8.8715-0.68096 0.22698-1.8044 2.0485-2.4966 4.0478-0.69218 1.9993-1.8866 4.3291-2.6542 5.1773-1.7511 1.935-1.7715 2.8008-0.0659 2.8008 0.73138 0 2.2071-1.4195 3.2793-3.1544zm-47.735-2.93c2.1601-1.8047 4.2382-3.2812 4.6181-3.2812 3.7896 0 18.394-19.318 19.313-25.547 0.91701-6.2144-0.4966-5.6659-5.0198 1.9478-5.9817 10.069-13.719 17.832-25.494 25.58-1.9917 1.3105-2.1281 1.7166-1.0241 3.0469 1.8543 2.2343 3.2164 1.9216 7.6067-1.7464zm97.639-2.5781c0.26707-7.666-0.32567-16.18-1.1896-17.086-0.53858-0.56506-0.77285 3.2806-0.61341 10.069 0.24614 10.481 1.5108 15.403 1.803 7.0166zm-122.72 0.9375c-1.0828-1.1602-3.0497-4.0078-4.3709-6.3281-2.3136-4.0633-3.3109-3.367-1.5912 1.1108 1.0619 2.765 5.2864 7.3267 6.7851 7.3267 0.65871 0 0.30888-0.89659-0.82304-2.1094zm5.8272-2.3314c-1.0128-0.89555-2.5798-2.4188-3.4821-3.3851-0.897-0.96-1.635-1.35-1.635-0.85 0 1.3683 4.4326 5.8658 5.7811 5.8658 0.69984 0 0.43089-0.66515-0.65836-1.6283zm178.63-0.52c0-0.66695 2.9458-3.0927 6.5462-5.3906 10.574-6.7486 12.391-16.346 4.8299-25.506-2.9713-3.5996-3.8282-1.723-1.4984 3.2812 3.8834 8.3411 0.86665 20.391-5.105 20.391-0.42188 0-1.833 1.066-3.1358 2.3688-2.4762 2.4762-3.9482 6.0687-2.4866 6.0687 0.46735 0 0.84973-0.54568 0.84973-1.2126zm-169.19-2.18c2.7233-1.7844 2.9352-2.9998 0.67014-3.8429-5.5926-2.0816-11.977-10.173-13.712-17.377-0.3414-1.418-1.0478-2.5781-1.5698-2.5781-4.5035 0-0.06902 16.205 5.8364 21.328 5.1609 4.4772 5.5465 4.5858 8.7751 2.4703zm8.6554-6.2203c-0.20576-0.64453-1.7882-1.5938-3.5165-2.1094-1.7283-0.51563-5.2649-2.8359-7.8592-5.1562-4.7955-4.2892-4.9746-3.8984-0.79889 1.7427 3.1523 4.2584 13.23 8.8303 12.175 5.523zm157.23-3.88c3.6433-3.6433 3.9976-8.3535 1.0182-13.536-8.4849-14.76-10.581-23.786-6.8466-29.485 2.201-3.3592 1.7257-14.655-0.50082-11.9-8.5462 10.574-7.6008 33.624 1.6127 39.318 8.2059 5.0715 6.4506 15.03-2.6492 15.03-4.7041 0-6.2932-1.3779-6.4121-5.56-0.11-4.03-1.67-3.62-1.67 0.44 0 7.285 10.124 11.012 15.449 5.6871zm-154.2-0.03c0-0.21996-2.2608-1.6934-5.024-3.2744-4.4533-2.5479-7.0964-5.4179-10.862-11.794-0.98246-1.6636-1.0417-1.5682-0.52537 0.84705 0.98951 4.6287 7.1713 12.627 10.786 13.957 1.7186 0.63191 5.625 0.81606 5.625 0.26515zm164.88-0.86128c3.9955-4.8142 1.2944-14.273-5.0956-17.845-2.2875-1.2785-4.1591-2.1964-4.1591-2.0399 0 0.15657 1.092 2.2386 2.4268 4.6266 2.0143 3.604 2.3728 5.2934 2.1094 9.9401-0.31315 5.5234-0.14635 5.8734 3.0834 6.4704 0.32358 0.0598 1.0594-0.4588 1.635-1.1525zm-222.49-5.54c0.36289-1.6758 1.4511-4.1667 2.4182-5.5353 0.96714-1.3687 1.7584-2.8251 1.7584-3.2366 0-0.41149 1.2111-2.0339 2.6914-3.6053 5.8556-6.2161 7.0672-15.878 3.3762-26.924-1.3487-4.0364-1.3537-4.014-0.93835 4.2381 0.49195 9.7736-1.1205 15.196-6.1628 20.723-6.3965 7.0116-9.0128 17.269-4.4316 17.373 0.34575 0.007 0.92555-1.3567 1.2884-3.0325zm208.02 1.2391c2.0603-2.2766 1.1979-5.4279-1.8678-6.8247-2.9187-1.3298-5.1027 0.38785-5.1027 4.0132 0 4.2706 4.1391 5.9401 6.9704 2.8115zm-137.32-7.82c0.0193-0.39655-1.125-0.39655-2.5429 0-3.8706 1.0824-10.09 0.53645-13.403-1.1765-1.6188-0.8371-3.1827-1.2826-3.4754-0.98988-1.0186 1.0186 3.0838 4.5332 8.2064 7.0304l5.1562 2.5136 3.0117-3.3283c1.6564-1.8306 3.0275-3.6528 3.0469-4.0493zm-78.628-3.2432c-0.77934-1.3387-0.97241-0.91831-0.99539 2.1673-0.01568 2.1055 0.2879 4.1497 0.67462 4.5427 1.1098 1.1279 1.3961-4.8628 0.32078-6.71zm97.777 3.4104c3.0817-12.469-8.113-23.607-14.752-14.678-2.4422 3.2848-0.85444 5.8096 2.0185 3.2097 2.2451-2.0318 4.8121-1.9488 7.4357 0.24023 3.8751 3.2333 5.4149 10.376 2.2368 10.376-2.1488 0-4.2628 2.3476-3.3882 3.7627 1.4914 2.4131 5.5907 0.56337 6.4492-2.9102zm223.7 0.18529c0-0.98904-2.2971-1.9753-4.6008-1.9753-0.89921 0-2.5814-1.0075-3.7383-2.239-1.3256-1.4111-2.7727-2.064-3.9134-1.7657-2.5615 0.66985-2.2441 2.0004 0.76812 3.2196 9.0663 3.6696 11.484 4.2508 11.484 2.7604zm6.9546-0.66935c2.2441-0.86115 1.7755-2.2434-0.76052-2.2434-1.2339 0-2.4863 0.63281-2.7831 1.4062-0.56758 1.4791 0.94166 1.8357 3.5436 0.8372zm-138.75-1.875c2.3891-0.91679 1.7193-3.8881-1.7234-7.6447-4.4483-4.854-4.7311-3.7787-1.8519 7.0418 0.34453 1.2948 1.3362 1.462 3.5752 0.60283zm-126.65-5.77c-2.1543-1.9322-4.5632-4.7787-5.3531-6.3256-1.6279-3.1878-2.0036-1.8857-0.55518 1.924 1.1854 3.1178 6.2105 7.9206 8.2837 7.9172 1.0092-0.002 0.18891-1.2157-2.3754-3.5156zm10.918-1.1534c3.651-1.9539 7.8764-8.3828 5.9674-9.0794-4.4938-1.6397-9.5388-6.0732-10.964-9.6351-0.82913-2.0722-2.3577-4.2986-3.3969-4.9475-1.0391-0.64896-1.8894-1.7956-1.8894-2.5482 0-1.0057-0.2768-1.0914-1.0446-0.32361-1.5874 1.5874-1.3507 9.7369 0.37902 13.045 1.7984 3.4394 3.2699 4.2066 9.4976 4.952 6.0632 0.72575 6.6344 2.5705 1.055 3.4072-5.4233 0.81328-9.0895-0.6469-12.738-5.0734-2.8916-3.5081-3.4733-3.0312-1.7738 1.4542 2.5079 6.619 10.32 11.204 14.908 8.7488zm74.13-6.6371c-2.4409-5.2957-3.089-7.9626-3.1912-13.134-0.0823-4.1648-0.51203-6.4897-1.1998-6.4919-4.7073-0.0148-0.95028 20.683 4.6376 25.549 3.0693 2.6728 3.0051 1.1307-0.24659-5.924zm-139.81 3.1055c0.63074-1.9336 1.3797-4.1484 1.6644-4.9219 0.33482-0.9097-0.14197-0.74419-1.3503 0.46875-1.9137 1.9209-3.6035 7.9688-2.2266 7.9688 0.42112 0 1.2817-1.582 1.9125-3.5156zm218.52-1.22c0-2.6037 0.6726-6.0347 1.4947-7.6244 1.4414-2.7874 0.83894-4.444-1.6373-4.5022-1.0596-0.0248-2.6698 5.7384-2.6698 9.5559 0 2.1545-0.37864 3.4314-0.91856 3.0977-0.54141-0.3346-0.68102-2.8405-0.34002-6.1029 0.5797-5.5464-1.2999-12.19-3.4488-12.19-1.842 0-3.8266 5.7516-3.4945 10.127 0.32762 4.316 0.34966 4.3436 1.0998 1.3784 1.3489-5.3318 3.5966-6.1136 3.3274-1.1574-0.35198 6.4816-0.13828 7.3868 2.3258 9.8508 3.3802 3.3802 4.2614 2.8771 4.2614-2.4329zm101.99 2.1018c10.102-9.4366 3.2379-28.55-7.8025-21.726-6.5873 4.0712-9.4896 16.318-5.1614 21.78 2.9216 3.687 8.9861 3.6617 12.964-0.0541zm-8.7133-2.0553c-0.93327-1.0312-2.4752-1.875-3.4266-1.875-2.19 0-2.1833-0.78589 0.0276-3.2208 0.96655-1.0645 2.6168-4.4667 3.6673-7.5604 2.1283-6.2681 7.7413-8.632 8.4624-3.564 0.48053 3.3773-1.5282 6.159-4.0935 5.6687-2.4034-0.45944-3.1912 0.62241-2.4719 3.3945 0.38703 1.4915 1.0661 1.6653 4.6105 1.1794 4.9064-0.67249 5.1495 0.91538 0.48455 3.1651-2.3765 1.1461-2.7455 1.7097-1.9947 3.0469 1.3546 2.4124-3.0477 2.2165-5.2657-0.23437zm-12.135-4.6878c0.0611-7.6264-0.11485-7.7554-3.6379-2.6663l-2.6478 3.8248 2.5888 2.7021c3.5389 3.6938 3.6371 3.5911 3.6969-3.8606zm-51.14 1.88c0-0.51563-1.5015-0.9375-3.3366-0.9375-1.9856 0-3.102 0.37957-2.7572 0.9375 0.31867 0.51562 1.8201 0.9375 3.3366 0.9375 1.5164 0 2.7572-0.42188 2.7572-0.9375zm-152.42-0.56905c0.81562-0.31298 1.4829-0.93114 1.4829-1.3737s1.2656-2.8003 2.8125-5.2395c3.5361-5.5758 3.5272-7.1812-0.054-9.7312-3.0378-2.1631-4.7478-1.8897-2.807 0.44876 0.9364 1.1283 0.69446 2.4017-1.2726 6.6984-1.3359 2.9179-2.4289 6.309-2.4289 7.5358 0 2.4341 0.0871 2.4979 2.2671 1.6614zm77.887-1.2976c0.79838-2.5155-0.12534-3.7584-2.7932-3.7584-1.2191 0-3.5323-1.1072-5.1405-2.4604-3.6249-3.0502-4.4154-2.4384-2.3831 1.8444 1.0367 2.1847 2.7134 3.7653 5.002 4.7153 4.4838 1.8613 4.6187 1.8527 5.3149-0.34092zm-82.97-0.82c0-1.1817-2.752-3.3003-3.4197-2.6326-0.96006 0.96006 0.47273 3.4553 1.984 3.4553 0.78962 0 1.4357-0.37022 1.4357-0.82271zm-94.144-1.8826c7.7323-4.7151 7.6004-13.98-0.44167-31.045-9.8871-20.98-4.2427-52.746 10.138-57.055 3.7569-1.1256 5.221-2.945 2.3698-2.945-12.801 0-24.278 25.611-19.745 44.062l0.80611 3.2812-1.9115-1.875c-4.9157-4.8218-6.5908-18.835-3.3496-28.021 1.901-5.3879 0.03-2.9913-2.1147 2.7089-5.2181 13.868-0.88796 34.405 10.017 47.509 6.2753 7.5405 8.5774 14.731 5.8786 18.362-3.4119 4.5902-11.493 3.5354-13.332-1.7403-1.1236-3.2233-3.355-3.7855-2.4393-0.61459 2.1696 7.5126 8.4865 10.81 14.123 7.3728zm247.42-0.58876c0-1.2174-0.7304-1.9659-2.1094-2.1617-2.0918-0.29708-3.0592 2.3185-1.452 3.9257 1.2436 1.2436 3.5613 0.0956 3.5613-1.764zm-162.33-4.4972c5.8224-1.2802 7.6097-2.8124 10.872-9.3213l1.7639-3.5189-3.3813-8.1999c-2.5535-6.1925-3.4045-9.6259-3.476-14.025-0.10332-6.3527-0.85047-8.2058-1.9331-4.7946-0.38016 1.1978-2.3007 5.5538-4.2679 9.68s-4.1632 9.8017-4.8801 12.612c-1.5889 6.2293-3.012 6.9571-4.3291 2.2139-1.3928-5.0158-1.2904-6.06 1.2455-12.693 4.0035-10.472 3.8255-9.8104 2.2127-8.2245-0.78662 0.77344-2.2996 4.3594-3.362 7.9688-1.0625 3.6094-2.7991 9.4546-3.8591 12.989-2.6241 8.7506-2.5635 14.103 0.18208 16.077 2.1857 1.5718 2.7306 1.5402 13.212-0.76436zm95.718-3.0331c0.99415-5.2993-6.8029-10.094-8.3725-5.1485-0.79791 2.514 1.0545 5.6604 3.3324 5.6604 1.0293 0 2.1143 0.63281 2.4111 1.4062 0.90524 2.359 1.9727 1.5802 2.629-1.9181zm56.242 1.5495c0.28463-0.46053-1.2725-1.6836-3.4603-2.718-12.05-5.6971-17.892-26.857-9.3289-33.79 15.291-12.379 18.849-18.064 14.209-22.703-1.0576-1.0576-2.6397-1.7296-3.5156-1.4934-0.87597 0.23626-2.698 0.67399-4.0489 0.97273-2.0161 0.44583-2.566 1.2295-3.0688 4.3734-0.74015 4.6287-3.7679 8.9787-6.7748 9.7333-6.0734 1.5243-10.166 18.843-6.437 27.243 0.68666 1.5469 1.5297 3.9408 1.8734 5.3199 1.7848 7.1611 17.877 17.389 20.552 13.062zm-182.56-11.1c7.3861-17.644 7.7775-18.88 7.7775-24.555 0-3.9144-0.88576-8.2613-2.8221-13.85-1.6597-4.7898-2.4767-8.4903-1.9835-8.9835 1.6854-1.6854 4.7191 4.9144 8.3057 18.069l0.89462 3.2812 0.70754-5.2657c1.0085-7.5053-1.9079-21.684-4.6789-22.747-0.7485-0.28722-1.3609-1.6186-1.3609-2.9586 0-2.0097-0.32833-2.3321-1.875-1.8412-1.0312 0.32731-1.875 0.18607-1.875-0.31387 0-0.49993-1.2656-1.3502-2.8125-1.8894-1.5469-0.53924-2.8125-1.6352-2.8125-2.4354 0-6.6918-18.718-6.7871-25.639-0.13046l-2.9543 2.8413 4.2188 0.60021c17.364 2.4704 32.328 29.315 25.829 46.334-1.5129 3.9615-3.0458 21.117-1.7732 19.844 0.32392-0.32392 1.6085-3.0244 2.8546-6.0011zm73.296 5.0288c0.86116-1.0376 0.23907-1.3903-3.3108-1.8769-9.1537-1.2546-18.783-8.2879-23.92-17.47-1.0095-1.8047-1.5997-2.5085-1.3116-1.564 0.2881 0.94452 0.52382 2.0108 0.52382 2.3695 0 8.8853 23.258 24.277 28.018 18.542zm57.039-5.2765c-1.9421-14.48-36.803-22.975-50.37-12.275-4.6052 3.632-6.9792 4.7672-9.9696 4.7672-4.1826 0-1.4083 1.609 5.0491 2.9283 6.765 1.3821 9.8098 0.64519 16.785-4.0625 5.465-3.6882 5.907-2.9617 1.2603 2.0716-2.0626 2.2342-3.7501 4.2028-3.7501 4.3749 0 1.3208 9.2624-0.205 15-2.4709 6.6726-2.6352 13.066-3.5248 16.33-2.2723 3.229 1.2391 1.1798 2.1163-4.5707 1.9565-7.7169-0.21442-10.461 1.7283-3.6688 2.5976 9.3364 1.1949 10.408 1.5192 12.548 3.7975 3.5597 3.7891 5.969 3.1539 5.3565-1.4123zm-141.33-9.61c-0.05038-10.82-5.9023-25.261-12.347-30.469-7.437-6.0096-8.8297-1.9498-2.2196 6.4703 5.7829 7.3663 9.3661 14.434 11.282 22.252 1.9311 7.8802 3.3163 8.6168 3.2843 1.7465zm154.94-1.5029c4.7199-4.5427 5.2301-6.0628 3.0171-8.9888-1.6334-2.1595-1.7624-5.6994-0.35504-9.7366 5.5665-15.968-17.045-30.664-35.054-22.782-11.208 4.9049-24.814 29.214-17.628 31.495 3.097 0.98297 4.3473-0.38848 5.399-5.9222 3.2219-16.954 25.7-24.062 35.303-11.165 5.2908 7.1061 4.7936 22.7-0.92519 29.019-1.3894 1.5353-1.3351 1.7185 0.73888 2.4892 3.0703 1.141 4.3592 0.54304 9.5043-4.409zm142.69-0.64908c2.9814-2.9814 3.1685-4.3002 0.21656-1.5271-1.1934 1.1211-2.645 2.0384-3.2259 2.0384-0.58087 0-1.3169 0.42187-1.6355 0.9375-1.2041 1.9483 2.3592 0.83682 4.6449-1.4489zm-207.66-3.4712 7.9236-3.7514-3.5874-1.8404c-5.7734-2.9619-13.568-0.27759-17.376 5.9839-3.3369 5.4871 0.89049 5.36 13.04-0.39208zm51.614 0.21088c1.3552-5.0328 0.80102-5.6028-5.4518-5.6069-3.6906-0.003-6.2888-0.58486-8.4286-1.8894-4.0484-2.4683-3.0422-3.9938 2.1233-3.2192 6.8667 1.0297 9.3893-4.8941 4.2659-10.017-5.852-5.852-13.006-1.842-14.501 8.1281-0.35514 2.3683-1.2465 4.5292-1.9852 4.8126-2.0715 0.7949-1.5846 2.1877 0.76876 2.199 3.92 0.0188 11.075 2.7206 15.981 6.0341 6.0838 4.1095 6.0017 4.1145 7.2284-0.4409zm-114.62-2.8672c1.631-5.5971 0.97185-7.8657-0.97976-3.3719-0.85584 1.9707-1.9426 3.3442-2.415 3.0522-0.87524-0.54093-1.9929 1.4764-1.9929 3.5972 0 3.2826 4.2249 0.7124 5.3876-3.2775zm47.416-0.0693c1.8057-2.6084 4.1203-4.4466 7.2797-5.7814 7.2988-3.0836 3.5287-6.098-4.9381-3.9481-8.5972 2.1829-11.864 6.3807-8.7108 11.193 2.1527 3.2855 3.2573 3.0317 6.3692-1.4635zm-108.54-5.6c-2.2512-10.791-1.85-16.809 2.1422-32.129 1.4342-5.5036 2.7061-8.2014 4.9658-10.533 3.4427-3.552 2.9752-5.5685-0.52797-2.2775-9.6724 9.0867-12.958 33.433-6.8695 50.899 1.6906 4.8497 1.8519 1.5292 0.28952-5.96zm-6.9003-9.1034c-0.38917-16.488 0.0019-19.835 3.3047-28.283 1.2927-3.3067-3.8682 2.6159-5.5445 6.3629-1.5398 3.4417-1.6569 4.7212-0.8153 8.9062 0.61212 3.0437 0.66905 6.2249 0.15094 8.4339-1.1827 5.0424 1.2346 21.297 3.1672 21.297 0.07234 0-0.04603-7.5225-0.26304-16.717zm144.81-11.544c3.1644-4.1882 3.9443-6.0372 4.2188-10.002 0.39961-5.7724 0.15676-5.8364-7.2312-1.9071-9.1988 4.8925-10.706 6.9002-11.154 14.857-0.13066 2.3203-0.54187 5.597-0.91381 7.2814-0.59801 2.7084-0.27389 3.465 2.8017 6.5406l3.478 3.478 2.4594-7.555c1.5264-4.6889 3.9321-9.5041 6.3414-12.693zm-36.495 15.688c3.0008-1.7587 6.9531-3.4785 8.7829-3.8218 9.5601-1.7935 7.1465-5.6368-3.54-5.6368-11.371 0-17.595 4.7142-14.315 10.843 1.3463 2.5156 2.7958 2.2944 9.0725-1.3843zm-29.14-14.12c2.3003-19.572-9.7534-47.304-22.263-51.221-4.7933-1.5008-16.691 0.96028-20.618 4.2649-1.5667 1.3183-3.1455 2.3969-3.5086 2.3969-0.36302 0-1.1833 1.1602-1.8229 2.5781-0.6396 1.418-2.414 4.8689-3.943 7.6688-3.472 6.3574-3.2301 6.5694 3.3994 2.9787 2.9581-1.6022 6.6862-2.9131 8.2846-2.9131s3.8368-0.65186 4.9743-1.4486c6.2682-4.3904 26.639-0.92464 22.67 3.8571-0.94111 1.134-0.80916 1.7879 0.70195 3.4784 3.0291 3.3887 5.9143 8.7157 5.9143 10.92 0 2.9174-1.6979 1.5347-3.7841-3.0818-3.1296-6.9252-8.3938-10.912-14.407-10.912-3.7622 0-4.508 1.4077-1.2616 2.3812 2.225 0.66725 10.078 7.7652 10.078 9.109 0 0.43305 1.501 3.1338 3.3356 6.0017 4.6925 7.3355 6.729 13.019 7.5119 20.965l0.67727 6.8732 1.7326-4.4109c0.95293-2.426 2.001-6.6944 2.329-9.4853zm134.11 5.2813c0.93316-0.52222 1.4248-1.2213 1.0926-1.5535-0.93878-0.93876-4.2921 1.5248-5.4074 3.9726-1.6667 3.6581-1.1216 4.6636 0.81046 1.495 0.99421-1.6305 2.5712-3.3918 3.5043-3.9141zm-175.28-1.32c-3.0422-4.7557-11.834-10.482-13.514-8.8016-0.26348 0.26347 1.1486 1.159 3.1379 1.99 4.17 1.7419 8.0778 5.2319 10.821 9.6639 1.0539 1.7029 2.1144 2.898 2.3566 2.6558 0.24219-0.24218-1.0185-2.7208-2.8015-5.5081zm60.758-0.79299c3.523-2.681 20.592-3.2039 23.582-0.72235 1.7408 1.4447 2.5523 0.43508 1.3924-1.7323-2.083-3.8921-9.4023-5.9026-21.489-5.9026h-9.8103l0.66649 4.4531c0.91394 6.1065 1.884 6.7759 5.6576 3.904zm108.96-2.999c-0.59496-1.7849-2.1139-0.57305-2.3542 1.8783-0.24575 2.5068-0.2001 2.5365 1.1845 0.77018 0.79206-1.0104 1.3184-2.2022 1.1697-2.6484zm-166.52-1.37c-3.947-7.25-16.542-13.07-19.797-9.14-1.0067 1.213-0.61217 1.4062 2.8705 1.4062 4.7618 0 11.201 2.8908 14.753 6.6227 2.9755 3.1268 3.3863 3.3368 2.1744 1.1116zm161.61-9.2053c-0.75709-3.5738-1.3838-8.4672-1.3928-10.874-0.0276-7.4033-3.6899-8.3449-7.7713-1.998-1.8355 2.8544-3.8956 4.0318-7.0775 4.045-5.0344 0.021-6.934 1.473-3.5902 2.7443 1.4341 0.54523 3.3182 0.99779 4.187 1.0057 0.86877 0.007 2.1779 0.39303 2.9091 0.85586 0.86693 0.54872 2.1322 0.31554 3.6367-0.67026 2.7514-1.8028 4.1994-0.47523 7.8733 7.2182 2.7676 5.7956 2.8952 5.5534 1.2259-2.3266zm-80.159 5.3201c0-1.9911-5.8984-6.8803-10.938-9.0669-3.0073-1.3047-7.4898-3.394-9.9611-4.6428-5.0705-2.5623-5.3149-2.3748-5.6265 4.3173l-0.19265 4.137 7.9688 0.6515c11.394 0.93148 13.913 1.5366 15.022 3.6076 0.98382 1.8383 3.7284 2.5717 3.7284 0.99631zm2.821-4.2921c-0.63078-1.9113-4.3834-6.6902-9.0245-11.493-4.3696-4.5214-9.222-10.436-10.783-13.143-3.2273-5.5962-4.0787-5.9888-5.0827-2.3438-2.0396 7.4045 1.6642 12.543 13.716 19.03 7.5355 4.0558 9.6329 6.1633 10.813 10.865 0.36837 1.4677 0.84324 2.1482 1.0553 1.5121 0.21203-0.63608-0.1004-2.6288-0.69429-4.4283zm3.6518-11.14c-1.3723-5.0965-4.2786-10.818-6.9738-13.73-3.2289-3.4879-9.8115-17.293-9.8115-20.576 0-5.1327-3.4177-2.0616-6.0183 5.4079-1.8676 5.3642 8.1123 22.833 15.995 27.998 1.2752 0.83556 3.1974 3.2418 4.2714 5.3471 2.5305 4.9602 4.2558 1.9359 2.537-4.4473zm28.121 2.4423c-0.0834-3.1376-0.17417-3.2636-0.84405-1.1719-1.0732 3.3511-1.0732 4.6875 0 4.6875 0.51562 0 0.89544-1.582 0.84405-3.5156zm68.878 1.4062c0.93345-3.4831 0.69364-4.6932-0.81535-4.1141-1.4746 0.56585-1.8693-1.018-0.68877-2.7639 3.555-5.2576 15.969-8.0495 25.145-5.6548 16.734 4.3673 30.405-0.543 35.496-12.75 2.7793-6.6635 0.79846-16.22-3.7215-17.955-1.6156-0.61995-1.8618-3.0893-0.35801-3.5905 0.65735-0.21913 1.1106-4.5665 1.2542-12.031 0.24589-12.776 3.468-25.821 6.9895-28.297 5.8094-4.0853 8.0616-11.03 3.5847-11.053-0.62639-0.0033-1.8576-1.2689-2.7359-2.8125-2.2056-3.8761-2.6479-3.6628-7.3044 3.5216-2.2558 3.4805-5.8896 9.0703-8.075 12.422-2.1855 3.3516-6.6512 8.6859-9.9239 11.854-6.579 6.369-9.1265 13.021-7.7654 20.276 0.47803 2.5481 0.25635 3.8193-0.86087 4.9365-0.91894 0.91895-1.5047 3.0884-1.5047 5.5731 0 4.1927-3.7654 8.9226-7.1032 8.9226-0.73388 0-1.3343 0.46975-1.3343 1.0439 0 0.67001 1.0913 0.83913 3.0469 0.47219 1.6758-0.31444 4.7344-0.84744 6.7969-1.1844 4.6676-0.76266 5.1416-1.4789 3.9874-6.0262-0.95068-3.7454-0.50139-6.493 1.0618-6.493 0.95142 0 2.9196 7.9446 2.9196 11.785 0 2.4285-0.93157 3.0165-7.9688 5.0304-8.9942 2.5739-14.814 1.7314-18.506-2.6791-7.1826-8.5799-23.629 9.221-21.947 23.755 0.85615 7.3987 8.8273 13.426 10.332 7.8122zm33.817-20.842c-2.0987-1.6012-0.94016-2.9271 3.3843-3.8731 5.2682-1.1525 7.4618-12.597 4.3752-22.826-1.9795-6.5599-3.2035-20.663-1.7933-20.663 0.55688 0 1.1422 1.793 1.3008 3.9844l0.28828 3.9844 2.3438-4.6875c1.2891-2.5781 2.7656-4.4766 3.2812-4.2188 1.1013 0.55067 0.73078 4.7595-0.53239 6.0469-1.3394 1.3651-1.0385 4.2613 0.50425 4.8533 0.8695 0.33366 1.3719 1.7933 1.3613 3.955-0.009 1.8844 0.35875 6.3792 0.81777 9.9886 1.3205 10.384-2.9745 20.655-9.8552 23.567-3.6805 1.5578-3.2772 1.566-5.4759-0.11158zm-169.7 13.107c0.35761-3.0938 0.6541-6.0469 0.65886-6.5625 0.18321-19.845-29.166-42.301-40.798-31.215-4.7932 4.5683-5.4078 7.4884-1.3301 6.3189 6.5404-1.8758 13.881-0.60881 13.881 2.3958 0 0.73716 0.94922 1.8286 2.1094 2.4253 1.1602 0.59678 3.1641 2.0408 4.4531 3.2089 1.2891 1.1681 3.3053 2.4146 4.4806 2.7698 4.3645 1.3194 14.203 19.87 14.298 26.957 0.0521 3.914 1.5534-0.29299 2.2476-6.2986zm-99.035 2.0268c5.297-7.0158 11.95-11.086 19.263-11.786 8.2487-0.78948 8.1813-3.2511-0.09984-3.6451-8.0879-0.38472-21.171 9.7347-23.239 17.975-0.88725 3.5351-0.17975 3.0936 4.0762-2.5433zm144.98-1.7924c1.7462-8.5865 1.775-8.4294-3.5968-19.689-5.3082-11.126-7.0584-16.557-7.0996-22.03-0.0273-3.6212-1.6524-3.9609-4.4846-0.9375-6.1245 6.5379-5.537 12.893 2.3695 25.634 3.49 5.6239 7.359 12.44 8.5978 15.147 2.6188 5.7226 3.3638 6.0541 4.2137 1.875zm44.054 2.2235c0.56246-0.91006-5.0708-2.3165-5.9114-1.4759-0.71883 0.71881 1.8681 2.2673 3.8172 2.2849 0.87192 0.008 1.8143-0.35616 2.0942-0.80901zm9.4882-2.4153c1.2656-1.2656 2.3011-2.7005 2.3011-3.1886 0-0.48813 1.4326-1.7327 3.1834-2.7658 3.9778-2.347 9.7109-9.8957 14.022-18.463 4.456-8.8547 7.7148-12.479 14.279-15.882 6.844-3.5474 7.3151-5.2741 2.5805-9.4566-8.28-7.311-15.77-0.871-24.58 21.116-5.2894 13.214-12.467 23.264-17.99 25.19-3.0913 1.0776-3.7161 2.9353-0.9872 2.9353 0.97608 0 2.0175 0.63281 2.3143 1.4062 0.77147 2.0104 2.2215 1.7434 4.8598-0.89489zm-36.299-1.8553c0.37861-3.221-1.3078-2.4425-1.9464 0.89849-0.28934 1.5136-0.0718 2.2682 0.59119 2.0509 0.57693-0.18912 1.1868-1.5164 1.3552-2.9494zm-7.7967-5.8308c2.4904-2.4904 2.7969-13.218 0.6253-21.888-3.2041-12.792-3.3755-15.848-1.2803-22.831 2.2089-7.3627 1.7487-7.897-4.4898-5.2132-13.119 5.6437-14.017 14.994-3.7005 38.514 1.5081 3.438 2.7419 6.7668 2.7419 7.3973 0 2.8001 4.2081 9.7094 4.5383 7.4514 0.17573-1.2018 0.88002-2.7456 1.5651-3.4306zm41.492-4.7561c5.8088-6.4969 10.812-17.66 13.77-30.725 0.69787-3.0824 10.072-12.656 12.392-12.656 2.6285 0 0.6372-2.3415-3.0477-3.5837-12.269-4.1359-21.476 7.6793-24.342 31.24-0.82444 6.7767-3.965 14.173-7.3344 17.273-3.4207 3.1472-3.1148 4.1706 1.0453 3.4972 2.6364-0.4268 4.5164-1.6884 7.517-5.0446zm-15.72 0.2121c4.8498-3.2332 9.375-9.8976 9.3752-13.807 0.00052-13.041 4.3138-24.57 12.429-33.221 3.2353-3.4492 2.8711-4.571-1.9158-5.9004-15.853-4.4029-26.988 10.139-25.453 33.241 0.547 8.2311 0.39543 9.8492-1.2422 13.262-3.0614 6.3794 1.0521 10.262 6.8071 6.4258zm-13.348-2.5781c1.5911-1.975 2.3186-7.1675 2.5215-17.995 0.22159-11.826 2.5591-20.673 7.272-27.523 3.3069-4.8064 2.9486-5.5492-1.9662-4.0767-2.0118 0.60276-4.3813 0.81833-5.2655 0.47904-2.9287-1.1238-10.734 8.503-11.889 14.663-2.5436 13.571 4.6734 40.23 9.327 34.453zm240.02-3.7758c1.6701-1.7231 3.2232-4.5024 3.5362-6.3281 0.53515-3.1218 0.43466-3.0502-2.4467 1.7423-1.6526 2.7488-3.583 5.2197-4.2898 5.4909-1.3784 0.52896-1.7802 2.1675-0.53143 2.1675 0.41448 0 2.0938-1.3827 3.7317-3.0726zm-300.74-3.42c0-0.93769-0.57988-2.1861-1.2886-2.7744-0.70874-0.5882-1.4858-3.1219-1.7269-5.6304-1.0296-10.715-13.383-21.313-23.863-20.472-6.8847 0.55264-12.002 3.5047-6.0756 3.5047 9.7425 0 24.795 12.639 30.356 25.489 1.175 2.7152 2.5984 2.6512 2.5984-0.11677zm122.18-3.7229c1.4566-0.95986 5.1441-2.2362 8.1945-2.8364 6.352-1.2497 7.9549-3.1098 7.0118-8.137-1.5092-8.0448-16.678 1.3908-21.105 13.129-1.0184 2.6997-1.0139 2.7043 1.1141 1.1502 1.1751-0.85813 3.3282-2.3456 4.7848-3.3054zm-120.39-8.4361c-1.1264-5.0134-2.8726-8.4549-5.4932-10.827l-2.0198-1.8279 0.96095 2.5275c0.52852 1.3901 1.5577 3.4793 2.2871 4.6426 0.72937 1.1633 1.8516 4.3883 2.4937 7.1666 0.79528 3.4406 1.4084 4.6212 1.9228 3.7021 0.41534-0.74215 0.34719-3.1651-0.15144-5.3843zm149.82 2.1716c2.5377-2.0235 4.5654-12.617 3.3237-17.365-1.531-5.8547-11.101 7.8494-11.302 16.183l-0.12739 5.2969 2.7952-1.0551c1.5374-0.58029 3.927-1.9575 5.3103-3.0605zm118.76-1.9471c1.7571-2.0428 2.9491-2.5 6.5175-2.5 3.9107 0 4.3671-0.22163 4.3671-2.1205 0-6.9454-8.8408-5.8828-12.67 1.5229-2.7138 5.2479-1.6504 7.0924 1.7857 3.0976zm-261.58-1.7536c0.27354-0.71285 2.2679-2.5787 4.4319-4.1463l3.9345-2.8502h-5.2202c-2.8711 0-5.8859-0.25544-6.6995-0.56765-1.4996-0.57546-1.5007 0.36477-0.009 7.8002 0.44598 2.223 2.6754 2.0752 3.5623-0.2361zm231.49-9.6092c1.7851-3.4751 1.8754-4.1359 0.66677-4.8828-1.9103-1.1806-2.6685-0.17902-3.5872 4.7382-0.75955 4.0656-0.33129 8.8441 0.49919 5.5699 0.19618-0.77344 1.2857-3.2148 2.4212-5.4252zm-266.04 3.5757c-0.70481-1.1404-7.7385-3.0861-9.226-2.5521-1.4334 0.51454 4.8096 3.2882 7.625 3.3877 1.1906 0.0421 1.911-0.33394 1.601-0.83556zm-25.189-3.33c0.30204-0.78711 2.3183-2.4679 4.4807-3.7351 2.1623-1.2672 4.9606-3.4016 6.2183-4.7432 2.617-2.7914 10.891-6.9656 13.806-6.9656 2.653 0 3.4328-1.535 1.3908-2.7377-1.4461-0.85178-1.4789-1.0993-0.25409-1.9183 3.3798-2.2599 9.7476-0.0859 13.778 4.7039 1.233 1.4654 3.1726 2.9427 4.3101 3.2828 1.1375 0.34016 4.0097 2.5003 6.3827 4.8002 2.373 2.3 4.9042 4.2878 5.625 4.4174 0.72076 0.12963 2.6644 0.55308 4.3192 0.941 10.284 2.4108 21.356-9.3456 21.017-22.315-0.25696-9.8146-10.562-15.428-18.635-10.15-3.0276 1.9792-2.6297 2.7216 1.7757 3.3125 4.3534 0.58391 5.1386 1.4346 5.9931 6.4923 1.4401 8.5236-13.681 15.332-17.525 7.89-5.0159-9.7119-21.328-16.194-29.833-11.855-5.0162 2.5591-4.7699 2.8984 1.62 2.2323 6.5784-0.68573 14.525 1.4268 17.519 4.657 1.1351 1.2248 2.6674 2.4406 3.4052 2.7019 0.73778 0.26127 1.0048 0.83428 0.59333 1.2734-0.41145 0.43907-1.4661 0.29218-2.3438-0.32642-4.8448-3.415-8.422-4.2573-19.408-4.57l-11.25-0.32025-2.3438 3.3249c-1.2891 1.8287-3.839 5.1935-5.6664 7.4775-3.575 4.456-7.878 13.558-6.419 13.558 0.48745 0 1.1334-0.644 1.4354-1.4311zm-3.421-7.843c0-1.9817-1.5185-0.18207-2.2869 2.7104-0.5984 2.2524-0.56598 2.2728 0.83213 0.52394 0.8-1 1.455-2.456 1.455-3.234zm210.48-6.6879c0.31075-0.50281 0.12313-0.9142-0.41693-0.9142-1.1648 0-11.129 8.5672-11.24 9.6642-0.0851 0.8412 10.76-7.2999 11.656-8.75zm-8.4225 0.53549c8.7354-7.4079 12.161-11.147 17.649-19.262 1.2203-1.8047 3.7537-5.1141 5.6297-7.3543s3.4137-4.7714 3.4171-5.625c0.003-0.85356 0.84437-2.8175 1.8688-4.3644 2.9241-4.4152 2.3969-5.3423-5.445-9.5755-15.701-8.4756-22.784-8.4386-27.075 0.14159-8.79 17.559-26.01 38.964-31.37 38.964-1.948 0-0.55998 1.6899 1.7731 2.1587 1.418 0.28492 4.0547 1.5863 5.8594 2.8921 1.8047 1.3057 4.9688 3.2927 7.0312 4.4155 2.0625 1.1228 4.7561 2.8273 5.9858 3.7876 3.5228 2.7513 4.7448 2.2365 14.669-6.1792zm-159.87 5.5337c0-0.98793-6.5187-3.2328-9.1105-3.1374l-2.6082 0.09597 2.8125 0.72772c1.5469 0.40025 3.8672 1.1741 5.1562 1.7196 2.7247 1.1531 3.75 1.3155 3.75 0.59414zm254.43-15.533c-2.22-2.4531-3.5148-2.2093-1.843 0.34703 0.75875 1.1602 1.7177 5.0625 2.131 8.6719l0.75143 6.5625 0.27773-6.9095c0.21964-5.4647-0.0558-7.278-1.3172-8.6719zm-200.06 7.372c3.3516-1.2951 7.6577-2.6302 9.5692-2.9669 1.9115-0.33673 5.4974-1.5237 7.9688-2.6378 4.496-2.0268 7.0988-2.2579 32.618-2.8965 18.853-0.47178 50.648-33.757 41.237-43.169-1.1472-1.1472-2.002-1.2225-4.4531-0.39232-7.2581 2.4583-10.789 7.0592-12.801 16.678-4.1202 19.703-22.631 28.257-40.788 18.85-8.3296-4.3156-9.2227-4.4464-13.194-1.9327-8.9104 5.6395-9.3212 5.7433-19.916 5.0336-9.5065-0.6368-9.8907-0.5902-9.1859 1.1142 1.5752 3.8092 1.6401 10.281 0.13916 13.873-1.9712 4.7177-1.9076 5.0044 0.60379 2.7198 1.1602-1.0554 4.8516-2.9786 8.2031-4.2736zm-83.231-5.797c2.9208-2.0458 1.2827-2.9756-1.746-0.99115-3.624 2.3745-6.8969 6.1137-6.8874 7.8686 0.0054 1.0096 1.0923 0.35988 3.3075-1.9771 1.8146-1.9145 4.2113-4.1196 5.3259-4.9003zm54.134 1.1731c2.9783-3.1968 1.4621-7.2337-2.1905-5.832-2.4649 0.94587-6.0352-0.39961-6.7111-2.5291-1.5395-4.8506 9.6024-12.09 15.922-10.345 1.8307 0.50547 3.3285 0.74827 3.3285 0.53954s2.157 0.47069 4.7932 1.5098c7.1538 2.8198 23.618 3.6126 28.354 1.3653 6.7782-3.2165 21.639-24.746 18.942-27.443-0.26558-0.26557-0.75909 0.3158-1.0967 1.292-3.5271 10.198-10.84 20.056-14.878 20.056-2.3103 0-1.6857-1.2331 2.8689-5.6642 6.5515-6.3738 7.9517-9.8502 8.818-21.895 0.78738-10.946 1.2815-13.125 3.5851-15.806 0.77783-0.9055 1.1717-1.8889 0.87528-2.1853-1.2042-1.2042-4.3974 1.7211-6.4676 5.9252-2.0483 4.1595-2.2209 4.2936-2.4929 1.9373-0.1607-1.3925 0.20368-3.5018 0.80973-4.6875l1.1019-2.1557-2.0872 2.0066c-2.1592 2.0759-2.1956 2.3078-3.1384 20.043-1.1099 20.877-15.913 28.967-38.285 20.922-11.53-4.1461-26.514 9.766-22.341 20.742 1.619 4.2583 7.2513 5.464 10.29 2.2028zm-70.137-6.154 3.418-7.263-2.777 3.282c-2.59 3.06-5.464 8.545-5.464 10.426 0 2.4039 1.7764 0.03008 4.8235-6.4458zm222.85 3.2844c4.0261-4.1676 8.3427-9.6608 9.7612-12.422 0.7947-1.5469 2.5765-3.8672 3.9596-5.1562 2.8329-2.6403 5.1635-7.5583 5.1635-10.896 0-3.5773-2.6223-2.664-3.6938 1.2864-1.4168 5.2235-8.6598 17.052-14.059 22.96-2.6107 2.8566-4.7468 5.451-4.7468 5.7654 0 1.1956 1.6553 0.49164 3.6157-1.5377zm-168.59-9.212c0.62796-2.6177 1.6867-4.9685 2.3526-5.2241 0.66598-0.25556 1.4539-1.4329 1.7509-2.6163 2.1342-8.5032 19.2-13.771 26.733-8.2514 13.477 9.8735 30.064 2.1535 30.098-14.009 0.0376-17.609 4.797-26.225 15.754-28.517 11.28-2.3602 14.694-1.5117 15.71 3.9045 0.76998 4.1044 2.8378 4.0115 5.3202-0.239 7.4313-12.724-13.606-15.612-29.573-4.0598-6.1336 4.4377-14.182 16.282-13.335 19.622 2.1156 8.3377 1.278 12.799-2.9196 15.549-3.2 2.0967-4.5393 0.86423-2.239-2.0602 1.132-1.4391 1.876-3.7655 1.8529-5.7938l-0.0387-3.3892-2.0707 4.2188c-2.2224 4.5278-8.9553 8.7457-13.789 8.6385-1.2891-0.02857-6.7734-0.26102-12.188-0.51655-17.55-0.8283-29.46 9.9403-26.782 24.216 0.8637 4.6039 2.0261 4.095 3.3615-1.4719zm-8.6215-6.2562c1.369-7.2289 4.0074-10.623 11.866-15.266 2.589-1.5296 5.3402-3.1778 6.1136-3.6626 0.77344-0.48479 2.6719-1.1781 4.2188-1.5406l2.8125-0.65918-2.3438-0.67386c-7.8714-2.2632 11.052-1.8334 22.134 0.5027 3.7752 0.79578 9.2482-3.6693 10.107-8.2453 0.31445-1.6761 1.6608-5.0934 2.992-7.594 6.55-12.304-10.86-26.711-20.56-17.013-0.85 0.854-1.55 2.787-1.55 4.297 0 3.1221 1.4085 3.6933 2.1466 0.87054 1.3436-5.1379 7.2433-0.59743 7.1932 5.5359-0.0748 9.1532-7.3673 13.719-20.157 12.621-5.5797-0.47923-7.3575-0.24029-11.513 1.5473-6.2963 2.7086-5.7612 3.0988 2.493 1.8182 3.6677-0.56906 7.1453-0.74002 7.728-0.37991 1.6564 1.0237-0.96601 2.2644-4.821 2.281-1.835 0.0079-4.1554 0.63375-5.1562 1.3908-1.0009 0.75704-2.5773 1.3899-3.503 1.4062-1.8396 0.03259-3.646 1.7072-10.036 9.3032-6.446 7.6631-7.7842 11.352-4.1184 11.352 1.5698 0 1.732 2.949 0.24397 4.437-1.2857 1.2857-0.41196 4.0005 1.2875 4.0005 0.76514 0 1.6698-2.3655 2.4203-6.3281zm48.483-30.178c-0.29952-0.48463 0.30681-2.2776 1.3474-3.9844 4.8679-7.9842 0.37557-17.571-8.2572-17.622-3.626-0.02122-1.7613-2.3278 2.1462-2.6547 7.807-0.65316 12.698 4.2959 12.698 12.849 0 7.1461-5.5958 15.195-7.9339 11.411zm-57.13 21.263c0.84551-1.6713 3.1748-4.6365 5.1762-6.5892 4.7076-4.5932 4.6599-6.0581-0.0948-2.9116-5.7047 3.7752-11.756 17.1-9.8505 21.689 0.49094 1.1821 1.0443 0.12203 1.9581-3.751 0.7006-2.9693 1.9656-6.7662 2.8111-8.4375zm121.13 9.2378c4.0509-2.1077 6.5672-5.4024 7.5864-9.9332 2.321-10.317 9.5864-21.562 13.932-21.562 0.68445 0 2.8789-0.83385 4.8766-1.853 5.29-2.6988 11.057-3.6805 16.913-2.8792 10.598 1.4501 25.171-9.9557 23.088-18.07-0.97923-3.8148-5.1564-7.3324-8.3319-7.0165-2.91 0.2894-4.89 2.631-2.23 2.631 4.3559 0 5.5695 7.7819 1.8946 12.149-4.7116 5.5994-11.328 7.2855-20.394 5.1973-10.883-2.5064-14.435-2.0611-22.086 2.7691-3.9451 2.4904-6.6267 3.064-6.6267 1.4174 0-0.53181 0.63281-1.2098 1.4062-1.5066 0.77344-0.2968 1.4062-0.98175 1.4062-1.5221 0-0.54038-0.73828-0.3342-1.6406 0.45816-0.90234 0.79236-2.6953 1.7536-3.9844 2.1361-3.39 1.0058-11.042 9.5151-13.625 15.151-2.6528 5.7888-8.7529 10.837-14.993 12.409-5.0422 1.2696-4.7166 2.9042 0.57852 2.9042 10.042 0 16.836-6.5363 21.926-21.094 1.8035-5.1583 2.2165-5.6494 4.9776-5.9188 3.0031-0.29301 4.3244 1.7151 2.0525 3.1192-1.2401 0.7664-6.0886 10.478-6.8889 13.798-1.6993 7.0505-13.172 14.341-22.371 14.217-6.0646-0.0824-6.8966 0.9467-2.3596 2.9186 4.1738 1.8141 21.451 1.87 24.89 0.08051zm75.601-22.559c-1.0009-0.75704-2.4526-1.3764-3.2261-1.3764-1.0622 0-0.96104 0.33674 0.41356 1.3764 1.0009 0.75704 2.4526 1.3764 3.2261 1.3764 1.0622 0 0.96104-0.33674-0.41356-1.3764zm-7.4917-4.1076c-1.423-1.2726-14.482-5.1431-15.139-4.4867-0.87384 0.87383-0.48249 1.044 7.2168 3.1379 8.411 2.2874 9.1032 2.4053 7.9219 1.3489zm-93.084-8.2021-0.87817-4.5951-0.10485 5.5781c-0.0731 3.891 0.19248 5.2808 0.87817 4.5951 0.66176-0.66176 0.69603-2.4848 0.10485-5.5781zm129.75 172.23c-1.1296-1.8278 5.7959-4.4467 13.691-5.1772 3.303-0.30563 4.5144-0.0587 4.9219 1.0032 1.0789 2.8117 0.42394 3.1303-6.4354 3.1303-3.8368 0-7.2367 0.42187-7.5553 0.9375-0.71736 1.1607-3.9246 1.2344-4.6218 0.10623z"/>
</svg>
